<svg id="svg" version="1.1" xmlns="http://www.w3.org/2000/svg" xmlns:xlink="http://www.w3.org/1999/xlink" width="400" height="400" viewBox="0, 0, 400,400"><g id="svgg"><path id="path0" d="M189.202 95.178 C 186.483 99.428,184.816 110.324,186.102 115.445 C 186.368 116.505,189.324 119.648,190.249 119.854 C 190.563 119.923,190.879 120.143,190.951 120.342 C 191.126 120.829,192.188 120.804,192.188 120.313 C 192.188 120.098,192.696 119.922,193.318 119.922 C 193.962 119.922,194.544 119.670,194.673 119.336 C 194.994 118.499,196.383 118.612,196.866 119.515 C 197.135 120.018,197.240 125.067,197.173 134.261 L 197.070 148.242 191.797 148.355 C 184.228 148.516,184.768 148.862,184.753 143.840 C 184.719 132.831,182.160 127.935,174.517 124.254 C 156.796 115.721,135.929 131.414,135.939 153.266 C 135.946 169.192,142.396 178.654,161.298 190.472 C 167.170 194.144,167.374 194.269,169.780 195.666 C 172.197 197.070,176.321 199.686,181.226 202.930 L 184.180 204.883 184.484 209.961 C 184.651 212.754,184.690 216.839,184.570 219.039 C 184.396 222.217,184.476 223.281,184.959 224.215 C 185.778 225.798,185.839 225.715,185.544 223.419 C 185.405 222.334,185.413 221.372,185.562 221.280 C 185.711 221.188,185.748 220.669,185.644 220.127 C 185.417 218.937,185.555 218.919,187.198 219.920 C 188.716 220.846,189.347 220.931,188.672 220.117 C 188.266 219.628,188.322 219.531,189.015 219.531 C 189.471 219.531,189.844 219.355,189.844 219.141 C 189.844 218.926,189.684 218.750,189.490 218.750 C 189.171 218.750,189.242 217.903,189.681 216.478 C 189.798 216.097,190.352 216.244,191.822 217.043 C 193.973 218.214,194.714 217.955,194.404 216.139 C 194.324 215.669,194.424 215.054,194.627 214.771 C 194.888 214.407,194.928 214.485,194.763 215.039 C 194.558 215.726,194.624 215.709,195.312 214.898 C 196.091 213.979,196.094 213.979,196.094 214.824 C 196.094 215.365,196.257 215.570,196.545 215.392 C 196.814 215.226,196.890 215.285,196.734 215.538 C 196.590 215.771,196.650 216.072,196.869 216.207 C 197.331 216.493,197.433 233.205,196.973 233.200 C 196.812 233.198,195.098 232.059,193.164 230.669 C 187.681 226.729,183.895 224.950,180.629 224.779 C 179.145 224.702,178.237 224.732,178.613 224.848 C 178.989 224.963,179.303 225.352,179.310 225.712 C 179.317 226.072,179.662 227.334,180.078 228.516 C 180.494 229.697,180.840 231.200,180.847 231.855 C 180.854 232.511,181.055 233.242,181.294 233.482 C 182.119 234.306,181.250 234.673,177.838 234.942 C 160.323 236.322,152.779 254.006,164.348 266.562 C 165.610 267.932,165.549 268.562,164.195 268.136 C 163.523 267.924,163.521 267.938,164.163 268.351 C 164.541 268.594,165.012 268.692,165.210 268.569 C 165.409 268.447,165.681 268.525,165.816 268.744 C 165.951 268.962,165.891 269.141,165.683 269.141 C 165.254 269.141,165.295 269.867,165.767 270.623 C 166.395 271.628,163.824 274.171,162.793 273.564 C 162.632 273.469,162.500 273.714,162.500 274.109 C 162.500 274.504,162.148 275.127,161.719 275.495 C 161.289 275.863,160.938 276.430,160.938 276.754 C 160.938 277.083,161.282 277.344,161.719 277.344 C 162.834 277.344,162.684 277.897,161.426 278.426 C 160.457 278.832,160.448 278.854,161.328 278.644 L 162.305 278.412 161.328 279.232 C 160.711 279.750,160.555 280.057,160.905 280.065 C 161.209 280.072,161.370 280.167,161.261 280.275 C 160.932 280.604,158.569 279.262,158.805 278.880 C 158.926 278.685,158.723 278.640,158.355 278.782 C 157.951 278.937,157.781 278.883,157.927 278.647 C 158.060 278.432,157.913 278.255,157.600 278.255 C 156.552 278.255,157.014 278.716,159.668 280.320 C 166.051 284.177,169.584 285.151,178.223 285.438 L 184.766 285.655 184.766 272.906 L 184.766 260.156 180.063 260.156 C 171.996 260.156,168.431 256.478,171.117 250.928 C 172.728 247.601,174.128 247.266,186.391 247.266 L 196.848 247.266 196.959 267.285 C 197.064 286.170,197.113 287.393,197.828 288.867 C 199.108 291.509,199.233 291.852,198.823 291.598 C 198.611 291.467,198.438 291.634,198.438 291.969 C 198.438 292.304,198.281 292.578,198.089 292.578 C 197.898 292.578,197.629 293.025,197.492 293.571 C 197.355 294.117,197.072 294.458,196.864 294.329 C 196.655 294.200,196.482 294.237,196.479 294.411 C 196.475 294.584,195.508 295.766,194.330 297.035 C 193.152 298.305,192.166 299.580,192.139 299.867 C 192.112 300.155,192.046 300.566,191.992 300.781 C 191.938 300.996,191.873 301.348,191.846 301.563 C 191.760 302.246,190.514 301.984,189.520 301.074 L 188.559 300.195 189.199 301.197 C 190.132 302.659,191.765 303.972,192.265 303.663 C 192.516 303.508,192.590 303.572,192.439 303.815 C 191.628 305.127,196.739 307.330,198.923 306.609 C 203.543 305.085,205.994 301.445,206.607 295.199 C 206.835 292.881,207.243 290.595,207.514 290.121 C 207.887 289.470,208.056 284.369,208.203 269.336 C 208.311 258.379,208.554 249.172,208.745 248.877 C 210.094 246.784,217.431 250.179,223.403 255.659 C 228.600 260.428,232.078 262.172,237.708 262.832 C 261.064 265.570,275.956 238.879,262.611 218.196 C 259.021 212.630,256.699 210.846,238.672 199.800 C 232.764 196.180,226.743 192.460,225.293 191.533 L 222.656 189.849 222.656 180.797 C 222.656 171.304,222.505 169.853,222.093 175.391 C 221.957 177.217,221.710 179.326,221.544 180.078 L 221.241 181.445 220.597 180.273 L 219.953 179.102 219.938 180.176 C 219.928 180.863,219.711 181.250,219.336 181.250 C 219.014 181.250,218.750 181.426,218.750 181.641 C 218.750 181.855,218.428 182.031,218.034 182.031 C 217.003 182.031,216.799 182.376,217.203 183.439 C 217.554 184.362,216.867 184.723,215.430 184.372 C 215.215 184.319,214.646 184.227,214.165 184.165 C 212.885 184.003,210.500 182.424,210.800 181.938 C 210.952 181.691,210.874 181.634,210.608 181.798 C 210.360 181.951,209.630 181.765,208.985 181.384 L 207.813 180.691 207.813 169.478 L 207.813 158.265 210.449 158.027 C 214.558 157.657,217.006 157.136,219.641 156.071 C 221.003 155.520,222.128 155.258,222.201 155.474 C 222.272 155.686,222.513 155.859,222.737 155.859 C 223.017 155.859,223.016 155.707,222.735 155.368 C 222.430 155.001,222.883 154.434,224.527 153.122 C 226.863 151.258,228.986 148.704,230.854 145.508 C 234.344 139.537,240.380 136.742,246.156 138.421 C 248.267 139.035,251.953 141.742,251.953 142.678 C 251.953 142.912,252.217 143.394,252.539 143.749 C 252.923 144.175,253.211 145.658,253.378 148.077 C 253.547 150.528,253.808 151.862,254.160 152.070 C 254.846 152.477,254.843 154.262,254.155 154.526 C 253.782 154.669,253.627 155.455,253.639 157.150 C 253.675 162.399,251.893 169.312,250.588 168.986 C 249.866 168.806,249.873 168.847,250.684 169.516 C 251.709 170.363,251.793 170.703,250.977 170.703 C 250.654 170.703,250.391 170.861,250.391 171.055 C 250.391 171.248,249.512 171.617,248.438 171.875 C 247.363 172.133,246.484 172.495,246.484 172.680 C 246.484 172.865,244.946 173.075,243.066 173.147 L 239.648 173.277 243.199 173.357 C 249.710 173.504,255.414 171.375,260.009 167.082 L 262.421 164.828 263.535 165.724 C 264.147 166.217,265.000 166.877,265.430 167.190 L 266.211 167.760 265.430 166.821 C 265.000 166.304,264.856 166.002,265.110 166.150 C 265.363 166.298,265.681 166.240,265.816 166.022 C 265.951 165.804,266.589 165.625,267.233 165.625 C 268.942 165.625,274.219 160.299,274.219 158.574 C 274.219 157.922,274.795 158.176,275.371 159.082 C 281.028 167.983,275.807 179.951,264.648 183.661 C 262.024 184.534,261.432 184.570,249.935 184.570 C 243.346 184.570,237.985 184.599,238.021 184.635 C 238.057 184.670,241.074 186.494,244.727 188.688 C 248.379 190.882,253.327 193.886,255.722 195.363 L 260.076 198.050 263.144 197.634 C 279.478 195.418,292.129 182.789,295.917 164.917 C 296.468 162.317,296.669 155.494,296.137 157.422 C 295.934 158.162,295.476 158.494,294.253 158.792 C 293.364 159.008,292.507 159.316,292.347 159.476 C 291.711 160.112,291.334 159.837,289.148 157.143 C 287.087 154.603,285.082 152.655,284.412 152.541 C 284.069 152.483,283.831 152.243,283.883 152.009 C 284.176 150.686,277.290 146.949,272.266 145.704 C 270.631 145.299,269.768 144.946,270.313 144.905 C 270.929 144.858,271.052 144.768,270.646 144.660 C 270.292 144.566,269.901 144.191,269.777 143.827 C 269.503 143.019,268.139 140.654,267.741 140.298 C 267.583 140.155,267.557 140.223,267.685 140.448 C 267.813 140.673,267.774 141.090,267.598 141.374 C 267.376 141.733,267.128 141.429,266.784 140.379 C 265.973 137.897,263.447 134.161,263.134 134.978 C 262.990 135.352,262.964 135.751,263.077 135.863 C 263.189 135.976,263.281 135.833,263.281 135.547 C 263.281 135.260,263.373 135.118,263.486 135.231 C 264.197 135.942,263.178 136.619,262.180 136.098 C 261.604 135.797,260.894 135.551,260.603 135.549 C 260.292 135.548,260.166 135.304,260.298 134.961 C 260.431 134.614,260.302 134.375,259.981 134.375 C 259.684 134.375,259.360 134.595,259.261 134.863 C 259.139 135.199,258.818 135.076,258.237 134.473 C 257.330 133.530,256.452 133.342,256.043 134.003 C 255.888 134.254,255.613 134.276,255.336 134.060 C 254.472 133.387,253.125 133.244,253.125 133.826 C 253.125 134.206,252.645 134.375,251.563 134.375 C 250.703 134.375,250.000 134.195,250.000 133.976 C 250.000 133.757,249.566 133.379,249.036 133.138 C 248.505 132.896,248.153 132.567,248.252 132.406 C 248.540 131.940,247.412 131.656,244.402 131.436 C 238.057 130.972,237.382 130.747,237.568 129.161 C 237.711 127.932,237.708 127.930,236.043 128.067 C 234.939 128.157,234.375 128.389,234.375 128.750 C 234.375 129.051,234.199 129.297,233.984 129.297 C 233.770 129.297,233.594 129.121,233.594 128.906 C 233.594 128.264,232.850 128.463,232.136 129.297 C 231.433 130.117,230.622 130.387,231.079 129.649 C 231.343 129.220,229.705 129.939,229.297 130.430 C 229.189 130.560,228.574 130.929,227.930 131.251 C 227.285 131.573,225.088 133.524,223.047 135.587 C 221.006 137.650,218.474 139.989,217.421 140.785 C 216.368 141.581,214.786 142.807,213.906 143.510 C 212.365 144.740,208.888 146.875,208.427 146.875 C 208.304 146.875,208.203 143.218,208.203 138.748 L 208.203 130.622 209.339 128.831 C 212.857 123.284,221.960 121.120,229.003 124.158 L 232.030 125.463 235.644 124.757 C 237.632 124.368,238.983 123.994,238.647 123.925 C 238.312 123.856,237.821 123.201,237.556 122.470 C 236.743 120.220,233.816 117.353,230.785 115.837 C 229.264 115.076,228.263 114.450,228.561 114.447 C 229.006 114.442,229.010 114.383,228.580 114.111 C 228.293 113.929,228.066 113.624,228.076 113.433 C 228.085 113.242,227.177 112.068,226.058 110.824 C 223.240 107.691,222.656 106.489,222.656 103.815 L 222.656 101.563 218.965 101.563 C 210.986 101.563,203.738 105.105,200.499 110.589 C 200.140 111.197,199.583 111.795,199.261 111.919 C 198.801 112.095,198.817 111.987,199.339 111.411 C 200.057 110.618,199.866 110.082,198.985 110.420 C 198.684 110.536,198.438 110.451,198.438 110.231 C 198.438 110.011,198.657 109.742,198.926 109.634 C 199.236 109.509,199.181 109.425,198.776 109.406 C 198.200 109.378,197.312 108.495,194.629 105.283 C 194.146 104.704,193.750 103.982,193.750 103.678 C 193.750 103.374,193.488 103.125,193.167 103.125 C 192.847 103.125,192.365 102.773,192.097 102.344 C 191.829 101.914,191.388 101.563,191.117 101.563 C 190.846 101.563,190.625 101.113,190.625 100.563 C 190.625 99.931,190.466 99.662,190.193 99.831 C 189.902 100.010,189.836 99.794,189.994 99.170 C 190.122 98.660,190.126 98.462,190.003 98.730 C 189.598 99.612,189.174 99.242,189.216 98.044 C 189.239 97.397,189.434 96.935,189.648 97.017 C 189.863 97.099,190.066 96.479,190.100 95.640 C 190.133 94.801,190.374 93.857,190.636 93.542 C 190.897 93.227,191.000 92.969,190.863 92.969 C 190.727 92.969,189.979 93.963,189.202 95.178 M152.577 106.695 C 134.878 108.966,118.073 122.199,112.230 138.465 C 103.875 161.721,117.136 191.048,139.164 198.035 C 140.871 198.576,140.747 199.219,138.934 199.219 C 128.390 199.219,115.149 210.854,110.966 223.795 C 109.867 227.195,109.952 227.517,111.319 225.134 C 115.399 218.021,122.668 213.976,131.641 213.826 C 135.655 213.759,137.334 213.570,138.672 213.033 C 140.226 212.410,142.199 212.304,155.664 212.121 L 170.898 211.914 168.750 210.705 C 166.548 209.466,157.457 204.002,149.805 199.320 C 130.313 187.391,122.798 175.941,121.283 155.859 C 119.281 129.337,141.092 105.904,166.204 107.595 C 170.759 107.902,168.127 107.146,162.891 106.644 C 158.223 106.196,156.391 106.205,152.577 106.695 M251.380 119.531 C 251.547 120.068,251.737 120.859,251.800 121.289 C 251.864 121.719,252.036 122.729,252.181 123.535 C 252.359 124.520,252.301 125.000,252.004 125.000 C 251.761 125.000,251.563 124.824,251.563 124.609 C 251.563 124.395,251.387 124.219,251.172 124.219 C 250.335 124.219,250.847 124.887,252.167 125.516 L 253.552 126.177 253.291 124.709 C 252.992 123.024,251.706 119.146,251.329 118.793 C 251.189 118.662,251.212 118.994,251.380 119.531 M244.628 123.862 C 246.293 124.038,248.271 124.352,249.023 124.559 C 249.775 124.767,250.391 124.811,250.391 124.656 C 250.391 124.198,246.021 123.433,243.726 123.489 C 241.735 123.538,241.792 123.562,244.628 123.862 M258.167 130.355 C 257.655 131.006,257.670 131.014,258.374 130.469 C 259.073 129.927,259.109 129.942,258.839 130.664 C 258.605 131.291,258.645 131.349,259.039 130.957 C 259.381 130.618,259.407 130.344,259.124 130.062 C 258.842 129.779,258.549 129.869,258.167 130.355 M260.387 132.304 C 261.012 132.813,261.234 133.123,260.879 132.994 C 260.525 132.865,260.119 132.948,259.977 133.178 C 259.687 133.646,260.829 133.565,261.640 133.059 C 262.354 132.614,261.475 131.609,260.650 131.926 C 260.285 132.065,260.128 132.002,260.270 131.772 C 260.404 131.557,260.228 131.380,259.881 131.380 C 259.443 131.380,259.597 131.662,260.387 132.304 M168.359 133.214 C 174.336 134.146,179.889 138.277,182.524 143.750 C 184.948 148.786,185.340 148.330,178.431 148.503 C 165.224 148.834,160.006 157.136,167.582 165.765 L 168.860 167.221 169.540 165.703 C 170.585 163.368,172.202 162.891,179.060 162.891 L 184.666 162.891 184.947 164.551 C 185.187 165.971,185.275 166.090,185.555 165.372 C 185.966 164.320,186.719 163.822,186.719 164.602 C 186.719 164.925,186.922 165.314,187.170 165.467 C 187.445 165.637,187.515 165.574,187.349 165.306 C 186.923 164.616,188.824 164.325,192.230 164.559 C 193.965 164.678,195.313 164.615,195.313 164.416 C 195.313 163.868,196.480 163.999,196.517 164.551 C 196.535 164.819,196.627 165.479,196.722 166.016 C 196.817 166.553,196.989 171.035,197.104 175.977 C 197.220 180.918,197.370 185.140,197.439 185.360 C 197.561 185.752,200.481 187.607,210.156 193.441 C 214.824 196.256,226.936 203.680,239.061 211.157 C 246.526 215.760,249.186 218.379,251.686 223.588 C 258.389 237.549,254.563 249.741,242.795 251.916 C 235.962 253.179,230.724 250.324,227.137 243.379 C 223.242 235.837,220.435 233.883,213.184 233.665 L 208.203 233.515 208.203 228.881 C 208.203 221.496,208.912 216.203,209.769 217.191 C 210.140 217.619,210.612 217.969,210.818 217.969 C 211.023 217.969,211.605 218.408,212.109 218.945 C 212.614 219.482,213.144 219.922,213.287 219.922 C 213.430 219.922,215.100 220.792,216.997 221.856 C 218.895 222.920,220.572 223.714,220.723 223.621 C 220.873 223.528,221.456 224.113,222.016 224.922 C 223.094 226.477,226.172 229.639,226.172 229.192 C 226.172 229.047,227.000 229.369,228.012 229.907 C 229.271 230.576,230.186 230.812,230.909 230.653 C 231.633 230.494,232.070 230.607,232.297 231.012 C 232.652 231.648,235.076 231.978,235.855 231.497 C 236.131 231.325,236.328 231.412,236.328 231.704 C 236.328 231.980,236.620 231.789,236.976 231.280 C 237.870 230.004,237.695 227.634,236.577 225.875 C 235.817 224.681,233.174 222.917,222.092 216.211 C 214.637 211.699,205.605 206.218,202.022 204.030 C 198.439 201.842,193.838 199.044,191.797 197.812 C 160.862 179.136,158.492 177.572,155.929 174.136 C 152.505 169.546,148.991 162.377,148.240 158.451 C 145.863 146.029,152.143 134.932,162.500 133.252 C 165.473 132.770,165.509 132.770,168.359 133.214 M261.758 133.741 C 261.407 134.164,261.481 134.324,262.101 134.486 C 262.689 134.640,262.891 134.503,262.891 133.948 C 262.891 133.073,262.389 132.982,261.758 133.741 M208.037 147.610 C 207.920 147.799,207.369 148.041,206.812 148.147 C 205.663 148.367,206.030 147.832,207.227 147.544 C 207.656 147.441,208.062 147.336,208.129 147.311 C 208.195 147.286,208.154 147.420,208.037 147.610 M222.735 159.230 C 222.670 161.850,222.776 162.498,223.340 162.940 C 223.940 163.411,223.966 163.403,223.553 162.872 C 223.294 162.540,223.022 160.870,222.948 159.161 L 222.813 156.055 222.735 159.230 M295.402 184.859 C 293.755 185.646,293.754 188.583,295.401 189.333 C 297.082 190.099,298.822 188.964,298.810 187.109 C 298.797 185.196,297.076 184.060,295.402 184.859 M117.411 190.848 C 116.107 192.152,117.212 195.313,118.971 195.313 C 121.482 195.313,122.605 191.907,120.547 190.533 C 119.800 190.035,118.048 190.210,117.411 190.848 M107.672 196.511 C 106.183 197.683,106.381 199.187,108.140 200.065 C 110.829 201.408,113.135 199.222,111.438 196.939 C 110.442 195.599,109.035 195.439,107.672 196.511 M276.563 201.953 C 274.136 204.380,277.956 207.938,280.508 205.629 C 282.171 204.124,280.851 201.172,278.516 201.172 C 277.865 201.172,276.997 201.519,276.563 201.953 M102.144 208.989 C 100.628 210.665,101.799 213.672,103.967 213.672 C 104.971 213.672,106.641 211.964,106.641 210.938 C 106.641 208.819,103.521 207.468,102.144 208.989 M160.742 224.875 C 152.642 226.688,143.076 234.951,141.378 241.602 C 141.159 242.461,140.819 243.604,140.624 244.141 C 139.416 247.464,138.349 253.061,138.660 254.440 C 138.916 255.574,138.866 255.959,138.441 256.122 C 137.698 256.408,137.739 257.422,138.494 257.422 C 138.850 257.422,139.050 257.700,138.982 258.101 C 138.824 259.036,136.589 259.753,133.809 259.760 C 132.105 259.764,131.600 259.881,131.918 260.199 C 132.699 260.981,138.301 259.949,141.695 258.399 L 144.727 257.014 144.605 252.962 C 144.267 241.752,150.328 231.129,160.078 225.839 C 162.249 224.661,162.349 224.515,160.742 224.875 M281.402 229.297 C 281.968 232.050,282.078 235.764,281.686 238.892 C 281.124 243.374,280.389 246.875,280.010 246.875 C 279.846 246.875,279.824 247.168,279.961 247.525 C 280.143 247.997,280.069 248.087,279.694 247.855 C 279.338 247.635,279.269 247.686,279.473 248.017 C 279.823 248.582,278.534 252.210,278.174 251.674 C 278.040 251.473,277.490 251.359,276.953 251.419 C 276.416 251.480,275.413 251.590,274.725 251.665 C 274.036 251.739,273.143 252.098,272.741 252.463 C 272.338 252.827,271.554 253.125,270.997 253.125 C 269.614 253.125,268.750 253.500,268.750 254.102 C 268.750 254.378,268.486 254.705,268.164 254.829 C 267.842 254.952,267.578 255.254,267.578 255.498 C 267.578 255.743,267.842 255.842,268.164 255.718 C 268.486 255.594,268.750 255.664,268.750 255.872 C 268.750 256.080,267.695 256.250,266.406 256.250 C 265.117 256.250,264.063 256.414,264.063 256.615 C 264.063 256.816,263.448 257.203,262.697 257.474 C 261.946 257.746,261.238 258.262,261.124 258.620 C 260.965 259.121,260.422 259.277,258.783 259.292 C 257.379 259.304,256.438 259.522,256.031 259.929 C 255.691 260.269,255.216 260.547,254.976 260.547 C 254.735 260.547,254.879 260.280,255.296 259.955 C 255.996 259.408,255.969 259.399,254.947 259.837 C 253.921 260.277,253.890 260.350,254.533 260.820 C 255.308 261.387,254.804 261.513,253.942 260.968 C 253.290 260.555,251.477 261.264,251.809 261.802 C 251.932 262.000,251.794 262.121,251.504 262.072 C 250.727 261.940,248.828 262.533,248.828 262.908 C 248.828 263.086,248.281 263.287,247.613 263.354 C 246.408 263.476,246.418 263.490,248.883 265.156 C 250.249 266.079,252.319 267.508,253.482 268.331 C 254.645 269.153,256.798 270.331,258.265 270.948 C 261.249 272.203,261.358 272.527,259.152 273.593 C 248.001 278.979,235.831 279.044,225.478 273.773 C 223.427 272.729,221.690 271.875,221.617 271.875 C 221.199 271.875,221.540 279.634,221.973 279.964 C 222.880 280.654,226.741 282.144,229.492 282.866 C 253.512 289.162,278.855 273.439,283.020 249.656 C 284.114 243.413,283.298 231.571,281.593 228.929 C 281.289 228.457,281.246 228.540,281.402 229.297 " stroke="none" fill="#1c4365" fill-rule="evenodd"></path><path id="path1" d="M0.000 200.000 L 0.000 400.000 200.000 400.000 L 400.000 400.000 400.000 200.000 L 400.000 0.000 200.000 0.000 L 0.000 0.000 0.000 200.000 M210.742 87.693 C 215.347 89.282,220.026 93.992,221.855 98.880 L 222.668 101.054 226.666 101.308 C 237.368 101.988,246.113 107.801,250.925 117.435 C 252.198 119.983,252.586 121.096,253.520 124.879 C 253.866 126.281,254.216 126.682,255.968 127.685 C 257.093 128.329,259.075 129.816,260.374 130.991 C 262.190 132.634,262.881 133.044,263.372 132.769 C 263.773 132.545,264.102 132.560,264.256 132.809 C 264.391 133.027,264.906 133.104,265.400 132.980 C 266.088 132.808,266.350 132.945,266.512 133.565 C 266.647 134.082,267.042 134.375,267.602 134.375 C 268.398 134.375,270.193 135.493,271.548 136.832 C 271.835 137.116,272.381 137.466,272.760 137.610 C 273.139 137.753,273.612 138.297,273.810 138.819 C 274.198 139.840,275.000 140.546,275.000 139.867 C 275.000 139.639,275.270 139.453,275.601 139.453 C 276.023 139.453,276.168 139.772,276.089 140.527 C 275.890 142.431,277.365 141.915,278.603 139.648 C 279.501 138.004,279.671 137.218,279.678 134.668 C 279.685 132.508,279.827 131.642,280.176 131.647 C 280.768 131.654,281.998 132.405,281.445 132.422 C 280.482 132.451,282.354 133.192,283.405 133.197 C 284.625 133.203,287.500 134.879,287.500 135.584 C 287.500 135.804,287.651 135.890,287.836 135.776 C 288.230 135.533,292.362 139.589,293.175 141.016 C 301.584 155.774,294.556 181.372,279.297 191.565 C 273.838 195.212,265.840 198.020,260.840 198.045 C 260.161 198.049,260.648 198.697,262.014 199.609 C 271.914 206.221,278.065 214.263,280.275 223.486 C 280.604 224.856,281.058 226.592,281.286 227.344 C 283.109 233.377,283.269 234.339,283.461 240.430 C 284.029 258.423,275.773 271.949,259.315 279.990 C 248.033 285.501,231.729 285.710,222.754 280.457 L 221.484 279.714 221.478 285.658 C 221.463 298.352,217.809 304.705,208.936 307.467 C 196.563 311.318,184.766 301.674,184.766 287.709 L 184.766 285.644 177.832 285.469 C 163.556 285.108,152.677 278.407,147.315 266.672 C 146.289 264.427,144.509 257.965,144.828 257.646 C 145.376 257.098,143.949 257.506,142.178 258.403 C 127.291 265.947,108.594 253.968,108.594 236.886 C 108.594 217.849,121.507 201.880,139.217 199.017 L 140.738 198.772 137.728 197.463 C 100.998 181.496,99.902 130.957,135.873 111.990 C 151.344 103.833,172.855 104.775,184.051 114.100 L 185.876 115.619 186.016 108.493 C 186.177 100.389,186.569 98.778,189.400 94.609 C 193.921 87.952,202.981 85.016,210.742 87.693 M155.078 108.653 C 154.326 108.861,153.034 109.209,152.207 109.425 C 151.379 109.640,150.786 109.900,150.887 110.002 C 151.124 110.239,155.933 108.958,156.426 108.528 C 156.852 108.155,156.884 108.152,155.078 108.653 M148.242 110.916 C 147.383 111.323,146.790 111.670,146.925 111.687 C 147.304 111.736,150.000 110.561,150.000 110.346 C 150.000 110.085,149.999 110.085,148.242 110.916 M269.410 111.381 C 272.616 114.337,271.412 119.197,267.156 120.478 C 261.333 122.230,258.418 113.631,263.867 110.777 C 265.501 109.921,268.139 110.208,269.410 111.381 M140.382 115.282 C 128.306 123.135,121.368 137.222,121.550 153.516 L 121.614 159.180 121.896 152.344 C 122.302 142.505,124.173 135.687,128.465 128.402 C 130.742 124.538,137.541 117.188,138.839 117.188 C 139.131 117.188,139.462 116.945,139.576 116.649 C 139.690 116.353,140.675 115.533,141.766 114.826 C 143.569 113.658,144.017 113.281,143.605 113.281 C 143.525 113.281,142.075 114.182,140.382 115.282 M218.164 123.207 C 214.281 124.171,210.696 126.610,208.926 129.492 C 208.287 130.532,208.206 131.581,208.205 138.777 L 208.203 146.891 209.695 146.130 C 212.060 144.923,217.416 140.577,217.442 139.844 C 217.542 136.964,229.204 126.172,232.216 126.172 C 232.519 126.172,232.874 125.998,233.005 125.786 C 233.138 125.570,232.993 125.496,232.677 125.617 C 232.365 125.737,231.217 125.382,230.124 124.828 C 226.072 122.775,222.085 122.234,218.164 123.207 M238.379 124.488 C 238.755 124.586,239.370 124.586,239.746 124.488 C 240.122 124.390,239.814 124.309,239.063 124.309 C 238.311 124.309,238.003 124.390,238.379 124.488 M267.188 131.990 C 266.865 132.170,266.074 132.421,265.430 132.548 L 264.258 132.780 265.430 132.228 C 266.748 131.607,268.239 131.405,267.188 131.990 M160.156 133.936 C 148.282 137.751,143.469 157.011,151.850 167.175 L 152.645 168.140 152.476 166.603 C 152.383 165.759,152.424 165.184,152.567 165.328 C 152.710 165.471,153.059 165.356,153.341 165.074 C 153.624 164.791,154.916 164.440,156.213 164.293 C 157.509 164.146,158.674 163.859,158.800 163.654 C 158.927 163.449,159.382 163.281,159.812 163.281 C 160.241 163.281,160.484 163.105,160.352 162.891 C 160.211 162.662,160.612 162.500,161.318 162.500 C 162.205 162.500,162.619 162.267,162.878 161.621 C 163.203 160.814,163.234 160.806,163.258 161.523 C 163.273 161.953,164.381 163.359,165.721 164.648 L 168.157 166.992 166.825 165.137 C 166.092 164.116,165.358 163.281,165.192 163.281 C 165.027 163.281,164.901 162.974,164.911 162.598 C 164.921 162.222,164.745 161.025,164.520 159.939 C 163.004 152.614,168.254 148.438,178.976 148.438 C 181.945 148.438,184.375 148.314,184.375 148.163 C 184.375 146.964,180.568 140.371,178.930 138.733 C 174.046 133.849,166.460 131.910,160.156 133.936 M233.914 141.759 C 232.771 142.813,231.924 143.752,232.031 143.848 C 232.139 143.943,233.153 143.081,234.285 141.932 C 236.861 139.319,236.662 139.226,233.914 141.759 M230.351 146.459 C 229.986 147.076,229.688 147.730,229.689 147.912 C 229.690 148.094,230.051 147.651,230.491 146.929 C 230.932 146.206,231.229 145.552,231.153 145.476 C 231.076 145.399,230.715 145.842,230.351 146.459 M227.514 150.488 L 226.367 151.758 227.637 150.611 C 228.335 149.979,228.906 149.408,228.906 149.341 C 228.906 149.039,228.584 149.305,227.514 150.488 M222.951 166.309 C 223.210 173.591,226.301 178.176,233.964 182.642 L 236.914 184.361 249.471 184.368 C 266.899 184.378,271.462 182.660,275.621 174.525 C 276.990 171.846,276.899 171.607,274.316 171.092 C 268.929 170.017,266.488 168.889,263.644 166.160 L 262.249 164.822 260.661 166.567 C 251.425 176.716,231.984 175.665,224.366 164.604 C 223.569 163.447,222.894 162.500,222.866 162.500 C 222.838 162.500,222.876 164.214,222.951 166.309 M172.439 163.308 C 169.459 164.174,168.535 167.040,170.688 168.738 C 172.786 170.391,183.756 177.334,184.277 177.339 C 184.651 177.343,184.766 175.640,184.766 170.117 L 184.766 162.891 179.199 162.926 C 176.138 162.945,173.096 163.117,172.439 163.308 M110.156 180.078 C 111.059 180.981,111.134 181.614,110.449 182.547 C 109.231 184.207,106.467 183.298,106.819 181.354 C 107.197 179.268,108.752 178.674,110.156 180.078 M298.069 185.095 C 299.832 186.523,298.724 189.844,296.484 189.844 C 295.223 189.844,294.010 188.503,294.010 187.109 C 294.010 185.715,295.223 184.375,296.484 184.375 C 296.866 184.375,297.579 184.699,298.069 185.095 M102.020 186.584 C 103.606 188.019,102.327 191.016,100.128 191.016 C 97.975 191.016,96.749 188.072,98.270 186.551 C 99.073 185.748,101.116 185.766,102.020 186.584 M223.049 189.732 C 223.051 189.901,223.606 190.355,224.284 190.740 C 225.303 191.320,225.426 191.334,224.997 190.817 C 224.357 190.045,223.046 189.315,223.049 189.732 M121.191 191.093 C 122.090 192.132,122.054 193.026,121.065 194.283 C 119.213 196.638,115.721 194.431,116.802 191.588 C 117.491 189.776,119.826 189.513,121.191 191.093 M112.430 196.022 C 112.498 196.491,112.718 196.875,112.918 196.875 C 113.789 196.875,113.280 199.865,112.248 200.811 L 111.215 201.758 111.947 200.616 L 112.678 199.475 111.605 200.178 C 110.819 200.693,110.063 200.828,108.781 200.684 C 107.711 200.563,107.031 200.643,107.031 200.890 C 107.031 201.112,106.680 200.975,106.250 200.586 C 105.363 199.783,105.217 197.854,105.926 196.298 C 106.399 195.262,108.094 194.536,108.538 195.181 C 108.955 195.786,110.532 195.729,110.297 195.116 C 110.138 194.703,110.342 194.648,111.198 194.876 C 111.918 195.067,112.348 195.468,112.430 196.022 M289.427 195.885 C 291.445 196.929,291.313 200.164,289.213 201.121 C 286.079 202.549,283.481 198.471,286.093 196.224 C 287.328 195.162,287.914 195.102,289.427 195.885 M280.675 202.088 C 282.649 204.906,279.505 207.951,276.810 205.831 C 275.714 204.969,275.482 203.632,276.197 202.296 C 277.044 200.714,279.629 200.594,280.675 202.088 M299.365 204.799 C 299.743 205.075,300.147 206.014,300.264 206.885 C 300.640 209.690,297.502 211.210,295.490 209.197 C 293.027 206.734,296.547 202.738,299.365 204.799 M105.313 208.502 C 105.549 208.660,105.945 209.173,106.192 209.642 C 107.727 212.560,104.418 215.001,102.087 212.669 C 99.912 210.495,102.769 206.804,105.313 208.502 M140.430 212.693 C 139.355 212.986,137.887 213.476,137.166 213.782 L 135.855 214.339 137.430 214.550 C 142.034 215.168,147.927 219.583,151.503 225.093 L 153.200 227.709 155.057 226.769 C 161.959 223.271,174.993 222.118,181.780 224.404 C 185.547 225.673,185.481 225.753,183.339 222.520 C 180.603 218.391,175.407 213.894,171.941 212.656 C 169.850 211.909,143.191 211.941,140.430 212.693 M289.986 212.919 C 292.117 214.595,290.754 218.750,288.074 218.750 C 286.826 218.750,284.766 216.810,284.766 215.636 C 284.766 212.649,287.701 211.121,289.986 212.919 M126.172 214.471 C 125.744 214.761,125.902 214.797,126.758 214.605 C 128.194 214.284,128.506 214.060,127.507 214.068 C 127.095 214.072,126.494 214.253,126.172 214.471 M115.411 220.382 C 114.117 221.749,114.065 221.860,115.089 221.065 C 116.145 220.245,117.428 218.750,117.075 218.750 C 117.009 218.750,116.261 219.484,115.411 220.382 M252.360 226.779 C 252.315 230.037,248.410 234.502,244.727 235.507 C 243.776 235.766,238.965 235.934,232.440 235.935 L 221.716 235.938 223.107 237.402 C 224.857 239.246,226.509 241.708,228.050 244.767 C 233.383 255.357,249.613 254.053,253.914 242.689 C 255.611 238.206,255.240 230.838,253.122 226.953 L 252.376 225.586 252.360 226.779 M174.822 247.886 C 170.819 249.352,169.300 253.041,171.212 256.656 C 172.694 259.459,174.492 260.156,180.237 260.156 L 184.961 260.156 184.961 253.711 L 184.961 247.266 180.664 247.293 C 177.950 247.311,175.798 247.529,174.822 247.886 M259.766 255.273 C 258.817 256.240,258.128 257.031,258.236 257.031 C 258.343 257.031,259.207 256.240,260.156 255.273 C 261.105 254.307,261.794 253.516,261.686 253.516 C 261.579 253.516,260.714 254.307,259.766 255.273 M196.583 257.617 C 196.587 258.477,196.667 258.782,196.761 258.296 C 196.854 257.810,196.851 257.107,196.753 256.734 C 196.655 256.360,196.579 256.758,196.583 257.617 M243.164 263.291 C 242.642 263.522,242.967 263.560,244.141 263.405 C 245.107 263.277,245.972 263.109,246.061 263.032 C 246.401 262.738,243.910 262.961,243.164 263.291 M137.817 271.622 C 140.977 273.376,140.944 277.770,137.758 279.486 C 133.907 281.560,129.817 276.446,132.642 273.089 C 134.282 271.139,136.046 270.640,137.817 271.622 " stroke="none" fill="#e5f5f9" fill-rule="evenodd"></path><path id="path2" d="M263.642 113.251 C 260.493 116.400,264.986 121.097,268.502 118.331 C 270.217 116.982,269.737 113.466,267.712 112.543 C 266.120 111.818,264.856 112.037,263.642 113.251 M139.626 117.932 C 139.950 118.456,138.828 118.749,138.345 118.267 C 137.877 117.799,136.576 118.593,136.914 119.141 C 137.095 119.433,135.955 120.607,135.682 120.410 C 135.608 120.356,135.327 120.315,135.059 120.318 C 134.733 120.322,134.766 120.451,135.156 120.703 C 135.708 121.059,135.669 121.119,134.810 121.240 C 134.219 121.324,132.289 123.435,132.558 123.704 C 132.698 123.844,132.813 123.743,132.813 123.480 C 132.813 123.216,132.988 123.109,133.203 123.242 C 133.418 123.375,133.594 123.268,133.594 123.005 C 133.594 122.741,133.725 122.658,133.886 122.818 C 134.280 123.213,132.864 124.214,132.246 123.977 C 131.977 123.874,131.448 124.259,131.072 124.833 C 130.696 125.408,130.546 125.780,130.739 125.660 C 130.932 125.541,131.082 125.915,131.072 126.491 C 131.055 127.496,130.698 127.737,130.143 127.118 C 130.000 126.959,130.103 126.954,130.371 127.109 C 130.929 127.430,131.051 126.727,130.497 126.385 C 130.297 126.261,130.022 126.515,129.885 126.947 C 129.747 127.380,129.471 127.734,129.271 127.734 C 129.070 127.734,128.906 127.998,128.906 128.320 C 128.906 128.643,128.764 128.906,128.591 128.906 C 128.315 128.906,126.669 132.194,125.169 135.742 C 124.086 138.303,122.714 144.159,122.287 148.047 C 121.805 152.424,121.869 162.890,122.370 161.791 C 122.535 161.429,122.581 162.012,122.471 163.086 C 122.322 164.544,122.378 164.891,122.692 164.453 C 123.011 164.008,123.058 164.196,122.885 165.234 C 122.712 166.276,122.758 166.462,123.080 166.016 C 123.404 165.567,123.451 165.731,123.281 166.719 C 123.158 167.433,123.214 167.912,123.407 167.792 C 123.599 167.674,123.656 167.956,123.535 168.420 C 123.395 168.954,123.465 169.170,123.725 169.009 C 124.191 168.721,124.763 170.530,124.394 171.126 C 124.036 171.705,128.630 180.712,130.653 183.398 C 136.378 190.999,139.411 193.180,168.503 210.615 C 169.820 211.405,171.777 212.475,172.852 212.993 C 175.718 214.376,180.444 218.341,182.231 220.862 C 183.088 222.071,184.107 223.453,184.495 223.933 L 185.200 224.805 184.775 223.928 C 184.506 223.372,184.430 221.586,184.569 219.045 C 184.690 216.842,184.651 212.754,184.484 209.961 L 184.180 204.883 181.226 202.930 C 176.321 199.686,172.197 197.070,169.780 195.666 C 167.374 194.269,167.170 194.144,161.298 190.472 C 148.976 182.768,144.355 178.593,140.673 171.835 C 132.909 157.584,134.949 139.615,145.407 130.145 C 146.211 129.417,146.754 128.621,146.614 128.375 C 146.474 128.130,146.500 128.057,146.672 128.212 C 146.844 128.368,147.632 127.982,148.424 127.355 C 149.215 126.728,150.729 125.770,151.787 125.227 C 152.845 124.683,153.393 124.234,153.004 124.229 C 152.616 124.223,152.387 124.075,152.496 123.898 C 153.034 123.027,143.617 118.750,141.160 118.750 C 140.625 118.750,140.286 118.593,140.404 118.400 C 140.523 118.208,140.349 117.946,140.017 117.819 C 139.684 117.691,139.509 117.742,139.626 117.932 M189.584 120.449 C 190.774 121.852,192.031 123.431,192.376 123.959 C 193.097 125.058,194.312 124.968,194.954 123.768 C 195.173 123.360,195.507 123.121,195.696 123.238 C 195.885 123.355,196.184 123.228,196.360 122.956 C 196.536 122.682,196.773 125.522,196.889 129.297 L 197.098 136.133 197.182 128.197 C 197.234 123.308,197.110 119.971,196.861 119.506 C 196.382 118.610,194.992 118.503,194.673 119.336 C 194.544 119.670,193.962 119.922,193.318 119.922 C 192.696 119.922,192.188 120.098,192.188 120.313 C 192.188 120.891,191.433 120.786,190.761 120.114 C 190.437 119.789,190.010 119.624,189.812 119.746 C 189.615 119.868,189.453 119.802,189.453 119.599 C 189.453 119.396,188.996 118.931,188.437 118.565 C 187.779 118.134,188.184 118.798,189.584 120.449 M136.719 120.791 C 136.719 120.983,136.865 121.049,137.044 120.939 C 137.223 120.828,137.370 120.975,137.370 121.265 C 137.370 121.589,137.010 121.752,136.436 121.689 C 135.792 121.619,135.565 121.749,135.703 122.109 C 135.957 122.772,135.412 123.120,134.606 122.811 C 133.749 122.482,133.828 122.132,134.863 121.660 C 135.347 121.440,135.708 121.076,135.666 120.852 C 135.624 120.627,135.844 120.443,136.155 120.443 C 136.465 120.443,136.719 120.600,136.719 120.791 M241.317 138.218 C 241.637 138.421,241.102 138.698,239.817 138.995 C 238.719 139.248,237.662 139.358,237.469 139.239 C 237.276 139.120,237.223 139.295,237.351 139.628 C 237.502 140.021,237.363 140.234,236.955 140.234 C 236.282 140.234,233.080 143.288,231.909 145.047 C 231.520 145.631,231.066 146.026,230.900 145.924 C 230.735 145.821,230.599 145.986,230.599 146.289 C 230.599 146.592,230.743 146.751,230.920 146.642 C 231.097 146.533,231.137 146.716,231.009 147.048 C 230.882 147.380,230.620 147.555,230.428 147.436 C 230.235 147.317,230.078 147.495,230.078 147.832 C 230.078 148.169,229.595 148.952,229.004 149.572 C 228.413 150.192,227.457 151.201,226.880 151.815 C 225.132 153.671,223.734 154.615,224.451 153.455 C 224.625 153.174,224.558 153.110,224.273 153.287 C 224.021 153.442,223.913 153.727,224.032 153.920 C 224.151 154.113,223.935 154.468,223.550 154.708 C 222.847 155.147,222.680 160.906,223.325 162.500 C 223.455 162.822,223.534 163.215,223.501 163.373 C 223.188 164.872,230.847 170.840,234.987 172.324 C 237.426 173.197,245.990 173.456,246.475 172.671 C 246.593 172.480,247.523 172.114,248.540 171.858 C 249.558 171.601,250.391 171.237,250.391 171.047 C 250.391 170.858,250.654 170.703,250.977 170.703 C 251.793 170.703,251.709 170.363,250.684 169.516 C 249.873 168.847,249.866 168.806,250.588 168.986 C 251.893 169.312,253.675 162.399,253.639 157.150 C 253.627 155.455,253.782 154.669,254.155 154.526 C 254.843 154.262,254.846 152.477,254.160 152.070 C 253.808 151.862,253.547 150.528,253.378 148.077 C 253.211 145.658,252.923 144.175,252.539 143.749 C 252.217 143.394,251.953 142.912,251.953 142.678 C 251.953 141.802,248.286 139.048,246.356 138.475 C 244.289 137.861,240.446 137.665,241.317 138.218 M196.870 142.383 L 196.680 144.336 193.359 144.256 C 191.533 144.212,188.959 144.080,187.639 143.963 C 184.941 143.725,184.766 143.878,184.766 146.475 C 184.766 148.404,184.879 148.438,191.450 148.438 C 197.776 148.438,197.345 148.778,197.180 143.914 C 197.085 141.133,197.023 140.824,196.870 142.383 M121.225 153.125 C 121.225 154.736,121.294 155.396,121.378 154.590 C 121.463 153.784,121.463 152.466,121.378 151.660 C 121.294 150.854,121.225 151.514,121.225 153.125 M186.024 164.523 C 185.761 164.785,185.535 165.272,185.519 165.605 C 185.500 166.043,185.391 165.994,185.129 165.430 C 184.894 164.924,184.810 166.954,184.889 171.185 C 184.957 174.780,185.089 177.792,185.182 177.880 C 185.275 177.967,188.076 179.777,191.406 181.902 L 197.461 185.766 197.275 178.723 L 197.088 171.680 196.884 176.726 C 196.729 180.549,196.548 181.816,196.137 181.953 C 195.811 182.061,195.702 181.959,195.864 181.696 C 196.038 181.415,195.912 181.344,195.512 181.498 C 195.170 181.629,194.941 181.583,195.004 181.396 C 195.066 181.208,194.969 181.028,194.788 180.995 C 194.606 180.962,193.991 180.513,193.421 179.997 C 192.850 179.481,191.372 178.300,190.137 177.373 C 188.782 176.356,187.891 175.392,187.891 174.944 C 187.891 174.532,187.457 174.004,186.914 173.757 C 186.377 173.512,185.931 173.033,185.923 172.691 C 185.915 172.350,185.811 171.404,185.693 170.589 C 185.482 169.131,185.496 169.112,186.587 169.359 C 189.743 170.072,190.629 170.405,192.705 171.655 C 194.711 172.863,194.936 172.924,194.706 172.201 C 194.533 171.655,194.590 171.475,194.880 171.654 C 195.118 171.801,195.313 171.745,195.313 171.530 C 195.313 171.316,195.137 171.031,194.922 170.898 C 194.158 170.426,194.517 169.887,195.313 170.313 C 195.742 170.542,196.094 170.983,196.094 171.291 C 196.094 171.637,196.326 171.761,196.702 171.617 C 197.319 171.380,197.319 171.394,196.682 166.211 C 196.603 165.566,196.526 164.819,196.511 164.551 C 196.481 163.999,195.313 163.868,195.313 164.416 C 195.313 164.615,193.965 164.678,192.230 164.559 C 188.960 164.334,186.924 164.619,187.312 165.246 C 187.441 165.454,187.442 165.625,187.315 165.625 C 187.188 165.625,186.953 165.270,186.792 164.836 C 186.562 164.215,186.399 164.148,186.024 164.523 M286.185 196.122 C 284.035 197.813,285.636 201.992,288.203 201.390 C 291.192 200.689,291.849 196.955,289.196 195.746 C 287.858 195.136,287.360 195.199,286.185 196.122 M299.847 206.602 C 300.049 207.713,299.986 207.891,299.463 207.690 C 299.092 207.548,298.875 207.636,298.930 207.906 C 298.982 208.158,298.848 208.377,298.633 208.395 C 298.418 208.412,297.857 208.640,297.386 208.902 C 296.647 209.313,296.449 209.261,295.931 208.521 C 295.600 208.050,295.213 207.781,295.071 207.924 C 294.750 208.245,295.576 209.280,296.585 209.820 C 298.444 210.815,300.882 208.261,300.014 206.229 C 299.654 205.386,299.634 205.430,299.847 206.602 M285.907 213.251 C 284.414 214.744,284.428 216.102,285.951 217.591 C 287.443 219.050,288.428 219.054,289.874 217.608 C 291.000 216.482,291.512 214.063,290.625 214.063 C 290.410 214.063,290.278 213.857,290.332 213.606 C 290.445 213.076,288.804 212.124,287.763 212.115 C 287.370 212.112,286.535 212.623,285.907 213.251 M245.020 215.314 C 246.457 216.554,245.741 217.963,244.286 216.756 C 243.931 216.461,243.750 216.450,243.750 216.723 C 243.750 216.949,243.398 217.246,242.969 217.383 C 242.539 217.519,242.188 217.883,242.188 218.190 C 242.188 218.848,240.969 218.938,240.357 218.325 C 240.051 218.020,239.848 218.036,239.632 218.386 C 239.439 218.698,239.493 218.772,239.783 218.592 C 240.387 218.219,240.358 218.682,239.740 219.300 C 239.468 219.572,238.487 219.896,237.559 220.021 C 236.632 220.145,235.786 220.334,235.679 220.440 C 235.288 220.832,235.274 222.683,235.660 222.921 C 235.879 223.057,235.940 222.977,235.796 222.744 C 235.351 222.023,236.208 221.844,236.772 222.540 C 237.138 222.992,237.152 223.105,236.816 222.903 C 236.548 222.742,236.328 222.796,236.328 223.024 C 236.328 223.649,235.630 223.520,234.863 222.753 C 234.486 222.377,233.827 222.074,233.398 222.080 C 232.969 222.085,232.266 221.944,231.836 221.766 C 231.087 221.455,231.085 221.465,231.776 222.022 C 232.173 222.341,232.773 222.497,233.110 222.368 C 233.496 222.220,233.624 222.292,233.456 222.563 C 233.310 222.799,233.396 223.120,233.648 223.276 C 233.950 223.462,234.000 223.388,233.795 223.057 C 233.588 222.722,233.666 222.615,234.028 222.736 C 234.326 222.835,234.570 223.128,234.570 223.387 C 234.570 223.990,235.592 224.628,236.077 224.328 C 236.281 224.201,236.343 224.269,236.213 224.479 C 236.084 224.688,236.320 225.423,236.739 226.111 C 237.158 226.800,237.512 227.842,237.527 228.427 C 237.552 229.374,237.592 229.405,237.891 228.711 C 238.154 228.098,238.230 228.266,238.245 229.492 C 238.257 230.506,237.985 231.397,237.468 232.031 L 236.672 233.008 237.281 231.758 C 237.616 231.070,237.887 230.279,237.882 230.000 C 237.877 229.721,237.578 230.090,237.218 230.821 C 236.858 231.553,236.495 231.947,236.412 231.698 C 236.329 231.449,236.063 231.368,235.821 231.517 C 235.070 231.982,232.645 231.634,232.297 231.012 C 232.070 230.607,231.633 230.494,230.909 230.653 C 230.186 230.812,229.271 230.576,228.012 229.907 C 227.000 229.369,226.172 229.047,226.172 229.192 C 226.172 229.639,223.094 226.477,222.016 224.922 C 221.456 224.113,220.873 223.528,220.723 223.621 C 220.572 223.714,218.895 222.920,216.997 221.856 C 215.100 220.792,213.430 219.922,213.287 219.922 C 213.144 219.922,212.614 219.482,212.109 218.945 C 211.605 218.408,211.023 217.969,210.818 217.969 C 210.612 217.969,210.140 217.619,209.769 217.191 C 208.912 216.203,208.203 221.496,208.203 228.881 L 208.203 233.515 213.184 233.656 C 217.768 233.786,218.322 233.884,220.143 234.890 L 222.122 235.984 233.034 235.840 C 246.508 235.662,248.682 234.959,251.234 229.957 C 253.412 225.687,250.581 218.775,245.196 215.215 L 243.945 214.389 245.020 215.314 M229.557 219.792 C 229.089 220.260,229.282 220.668,230.176 221.102 C 230.959 221.481,230.982 221.468,230.385 220.985 C 229.875 220.571,229.823 220.333,230.170 219.986 C 230.450 219.706,230.470 219.531,230.221 219.531 C 229.999 219.531,229.701 219.648,229.557 219.792 M148.176 221.802 C 148.832 222.527,148.440 223.446,147.480 223.432 C 147.255 223.428,147.329 223.262,147.645 223.062 C 147.961 222.862,148.083 222.562,147.917 222.396 C 147.511 221.990,146.894 223.033,147.148 223.695 C 147.277 224.031,147.054 224.219,146.526 224.219 C 146.073 224.219,145.703 224.395,145.703 224.609 C 145.703 224.824,145.380 225.000,144.984 225.000 C 144.165 225.000,141.952 227.851,142.603 228.068 C 142.835 228.145,142.552 228.453,141.975 228.753 C 140.790 229.368,140.498 229.428,140.760 229.004 C 140.860 228.843,140.562 228.683,140.099 228.648 C 139.637 228.614,138.291 228.295,137.109 227.940 C 127.737 225.122,120.816 231.901,122.847 241.910 C 122.968 242.510,122.879 243.301,122.648 243.668 C 122.305 244.214,122.277 244.160,122.495 243.373 C 122.738 242.498,122.641 242.537,121.440 243.793 C 120.712 244.553,119.810 245.289,119.434 245.427 C 119.058 245.565,118.750 245.948,118.750 246.277 C 118.750 246.714,118.330 246.875,117.188 246.875 C 116.203 246.875,115.621 247.056,115.615 247.363 C 115.600 248.166,112.840 249.376,112.446 248.753 C 112.267 248.472,112.119 248.403,112.115 248.599 C 112.103 249.356,114.554 252.718,114.944 252.477 C 115.170 252.337,115.242 252.406,115.104 252.630 C 114.791 253.136,115.775 254.006,116.212 253.610 C 116.388 253.451,116.415 253.525,116.272 253.774 C 116.006 254.238,117.793 255.807,120.313 257.322 C 123.295 259.116,132.634 261.448,131.868 260.208 C 131.676 259.898,132.274 259.764,133.864 259.760 C 136.594 259.753,138.825 259.030,138.982 258.101 C 139.050 257.700,138.850 257.422,138.494 257.422 C 137.739 257.422,137.698 256.408,138.441 256.122 C 138.866 255.959,138.916 255.574,138.660 254.440 C 138.349 253.061,139.416 247.464,140.624 244.141 C 140.819 243.604,141.159 242.461,141.378 241.602 C 142.192 238.411,147.936 231.209,151.426 229.001 L 153.082 227.953 152.260 226.574 C 150.914 224.317,148.372 221.094,147.939 221.094 C 147.717 221.094,147.824 221.413,148.176 221.802 M208.751 248.877 C 208.563 249.172,208.344 251.420,208.262 253.873 L 208.115 258.331 209.362 256.911 C 212.048 253.851,218.340 251.650,220.138 253.142 C 220.449 253.400,220.703 253.508,220.703 253.383 C 220.703 253.042,216.442 250.282,214.654 249.465 C 212.538 248.497,209.202 248.165,208.751 248.877 M222.656 255.273 C 223.385 256.025,224.069 256.641,224.177 256.641 C 224.284 256.641,223.776 256.025,223.047 255.273 C 222.318 254.521,221.634 253.906,221.526 253.906 C 221.419 253.906,221.927 254.521,222.656 255.273 M245.761 263.935 C 245.470 264.249,244.987 264.412,244.687 264.297 C 244.387 264.182,243.746 264.262,243.262 264.475 C 242.502 264.809,242.542 264.830,243.554 264.626 C 244.198 264.496,244.598 264.516,244.443 264.671 C 244.289 264.826,242.797 265.010,241.128 265.081 C 239.460 265.151,238.047 265.351,237.989 265.525 C 237.931 265.698,237.161 265.771,236.278 265.687 C 235.395 265.603,234.562 265.695,234.426 265.891 C 233.950 266.582,231.820 267.865,230.371 268.335 C 229.565 268.597,228.906 269.041,228.906 269.322 C 228.906 269.628,228.204 269.939,227.155 270.096 C 225.445 270.352,225.417 270.380,225.978 271.236 L 226.552 272.113 224.322 272.004 L 222.092 271.895 223.448 272.728 C 233.599 278.961,247.349 279.294,259.152 273.593 C 260.637 272.875,261.459 271.875,260.563 271.875 C 259.551 271.875,253.865 268.732,250.806 266.482 C 248.415 264.723,247.425 264.192,247.199 264.548 C 246.972 264.904,246.885 264.858,246.881 264.379 C 246.873 263.454,246.384 263.260,245.761 263.935 M133.226 272.559 C 131.588 274.074,131.324 275.977,132.509 277.736 C 134.335 280.449,136.604 280.661,138.929 278.336 C 142.673 274.593,137.114 268.961,133.226 272.559 M220.883 271.900 C 220.741 272.129,220.739 272.920,220.877 273.658 C 221.034 274.492,220.974 275.000,220.721 275.000 C 220.496 275.000,220.283 275.747,220.247 276.660 L 220.181 278.320 220.025 276.811 C 219.834 274.961,218.798 273.686,217.959 274.269 C 217.523 274.571,217.502 274.717,217.871 274.867 C 218.508 275.125,218.505 276.172,217.867 276.172 C 217.596 276.172,216.937 276.575,216.402 277.068 C 215.867 277.560,214.814 278.134,214.063 278.343 C 213.094 278.611,212.524 279.088,212.109 279.977 C 211.677 280.904,211.263 281.235,210.529 281.242 C 209.667 281.249,209.522 281.437,209.440 282.660 C 209.387 283.436,209.072 284.343,208.739 284.677 C 208.353 285.062,208.188 285.758,208.285 286.587 C 208.368 287.304,208.296 287.891,208.125 287.891 C 207.953 287.891,207.813 288.254,207.813 288.698 C 207.813 289.141,207.634 289.837,207.417 290.244 C 207.199 290.651,206.832 292.881,206.602 295.199 C 205.982 301.430,204.026 304.480,199.414 306.404 L 197.461 307.219 199.414 307.674 C 206.616 309.350,214.222 306.499,218.089 300.673 C 220.919 296.409,221.209 294.841,221.354 283.008 C 221.424 277.207,221.565 272.241,221.666 271.973 C 221.890 271.379,221.242 271.319,220.883 271.900 " stroke="none" fill="#cd4153" fill-rule="evenodd"></path><path id="path3" d="M199.414 87.432 C 196.117 88.427,194.180 89.512,191.961 91.604 C 190.904 92.601,190.303 93.282,190.625 93.118 C 191.125 92.862,191.134 92.913,190.686 93.467 C 190.397 93.823,190.133 94.801,190.100 95.640 C 190.066 96.479,189.863 97.099,189.648 97.017 C 189.434 96.935,189.239 97.397,189.216 98.044 C 189.174 99.242,189.598 99.612,190.003 98.730 C 190.126 98.462,190.122 98.660,189.994 99.170 C 189.836 99.794,189.902 100.010,190.193 99.831 C 190.466 99.662,190.625 99.931,190.625 100.563 C 190.625 101.113,190.846 101.563,191.117 101.563 C 191.388 101.563,191.829 101.914,192.097 102.344 C 192.365 102.773,192.847 103.125,193.167 103.125 C 193.488 103.125,193.750 103.374,193.750 103.678 C 193.750 103.982,194.146 104.704,194.629 105.283 C 197.312 108.495,198.200 109.378,198.776 109.406 C 199.181 109.425,199.236 109.509,198.926 109.634 C 198.657 109.742,198.438 110.011,198.438 110.231 C 198.438 110.451,198.684 110.536,198.985 110.420 C 199.866 110.082,200.057 110.618,199.339 111.411 C 198.817 111.987,198.801 112.095,199.261 111.919 C 199.583 111.795,200.140 111.197,200.499 110.589 C 203.738 105.105,210.986 101.563,218.965 101.563 L 222.656 101.563 222.656 103.815 C 222.656 106.510,223.236 107.686,226.172 110.951 C 227.354 112.265,228.261 113.439,228.189 113.560 C 228.117 113.681,228.293 113.929,228.580 114.111 C 229.010 114.383,229.006 114.442,228.561 114.447 C 228.263 114.450,229.264 115.076,230.785 115.837 C 233.805 117.347,236.742 120.218,237.548 122.447 C 237.874 123.348,238.393 123.881,239.225 124.169 L 240.430 124.585 238.965 124.480 C 238.159 124.423,237.500 124.538,237.500 124.737 C 237.500 124.935,236.979 124.994,236.343 124.866 C 235.707 124.739,235.086 124.797,234.964 124.996 C 234.841 125.194,234.511 125.268,234.230 125.160 C 233.949 125.053,233.493 125.236,233.218 125.568 C 232.942 125.900,232.481 126.172,232.192 126.172 C 229.208 126.172,217.598 136.889,217.640 139.605 C 217.642 139.796,217.498 140.059,217.319 140.191 C 217.139 140.322,216.729 140.774,216.406 141.196 C 215.054 142.963,218.713 139.896,222.670 135.945 C 224.933 133.685,227.306 131.573,227.943 131.251 C 228.580 130.929,229.189 130.560,229.297 130.430 C 229.705 129.939,231.343 129.220,231.079 129.649 C 230.622 130.387,231.433 130.117,232.136 129.297 C 232.850 128.463,233.594 128.264,233.594 128.906 C 233.594 129.121,233.770 129.297,233.984 129.297 C 234.199 129.297,234.375 129.051,234.375 128.750 C 234.375 128.389,234.939 128.157,236.043 128.067 C 237.708 127.930,237.711 127.932,237.568 129.161 C 237.382 130.747,238.057 130.972,244.402 131.436 C 247.412 131.656,248.540 131.940,248.252 132.406 C 248.153 132.567,248.505 132.896,249.036 133.138 C 249.566 133.379,250.000 133.757,250.000 133.976 C 250.000 134.195,250.703 134.375,251.563 134.375 C 252.645 134.375,253.125 134.206,253.125 133.826 C 253.125 133.244,254.472 133.387,255.336 134.060 C 255.613 134.276,255.888 134.254,256.043 134.003 C 256.452 133.342,257.330 133.530,258.237 134.473 C 258.818 135.076,259.139 135.199,259.261 134.863 C 259.360 134.595,259.684 134.375,259.981 134.375 C 260.302 134.375,260.431 134.614,260.298 134.961 C 260.166 135.304,260.292 135.548,260.603 135.549 C 260.894 135.551,261.604 135.797,262.180 136.098 C 263.178 136.619,264.197 135.942,263.486 135.231 C 263.373 135.118,263.281 135.260,263.281 135.547 C 263.281 135.833,263.189 135.976,263.077 135.863 C 262.964 135.751,262.990 135.352,263.134 134.978 C 263.446 134.164,265.971 137.893,266.778 140.358 C 267.046 141.178,267.349 141.766,267.451 141.664 C 267.868 141.247,267.837 139.980,267.387 139.063 C 267.124 138.525,266.796 137.497,266.659 136.776 C 266.522 136.056,265.970 135.120,265.431 134.697 C 264.220 133.744,264.190 133.070,265.332 132.469 C 266.010 132.113,266.032 132.063,265.430 132.252 C 264.598 132.513,263.665 132.734,263.184 132.783 C 263.022 132.799,262.891 133.235,262.891 133.752 C 262.891 134.498,262.730 134.651,262.114 134.489 C 261.686 134.378,261.435 134.128,261.555 133.934 C 261.675 133.740,261.941 133.685,262.146 133.812 C 262.895 134.274,262.272 133.125,260.968 131.638 C 259.739 130.236,259.587 130.166,259.083 130.779 C 258.782 131.145,258.645 131.229,258.778 130.965 C 259.206 130.117,258.263 128.998,256.057 127.736 C 254.874 127.059,253.906 126.342,253.906 126.143 C 253.906 125.944,253.774 125.823,253.613 125.874 C 253.136 126.026,250.781 124.935,250.781 124.562 C 250.781 124.373,250.957 124.219,251.172 124.219 C 251.387 124.219,251.563 124.395,251.563 124.609 C 251.563 124.824,251.761 125.000,252.004 125.000 C 252.301 125.000,252.360 124.519,252.183 123.535 C 252.039 122.729,251.841 121.631,251.744 121.094 C 251.646 120.557,251.522 119.766,251.467 119.336 C 251.412 118.906,251.147 118.414,250.879 118.242 C 250.610 118.071,250.393 117.719,250.397 117.461 C 250.400 117.174,250.550 117.220,250.781 117.578 C 251.046 117.988,251.162 118.014,251.166 117.664 C 251.169 117.388,250.909 117.062,250.588 116.939 C 250.267 116.816,250.087 116.581,250.188 116.418 C 250.520 115.881,247.937 112.353,245.276 109.707 C 239.726 104.189,234.435 101.801,226.666 101.308 L 222.668 101.054 221.855 98.880 C 218.475 89.846,208.416 84.715,199.414 87.432 M122.827 121.582 L 121.680 122.852 122.949 121.704 C 124.133 120.635,124.398 120.313,124.097 120.313 C 124.029 120.313,123.458 120.884,122.827 121.582 M248.121 123.906 C 249.369 124.164,250.391 124.502,250.391 124.656 C 250.391 124.811,249.775 124.767,249.023 124.559 C 248.271 124.352,246.293 124.038,244.628 123.862 C 241.792 123.562,241.735 123.538,243.726 123.489 C 244.895 123.461,246.873 123.648,248.121 123.906 M260.368 131.559 C 260.270 131.657,260.578 132.062,261.052 132.457 C 261.526 132.853,261.826 133.196,261.719 133.219 C 260.106 133.566,259.612 133.533,260.212 133.118 C 260.796 132.714,260.782 132.617,260.054 132.027 C 259.387 131.487,259.362 131.380,259.901 131.380 C 260.256 131.380,260.466 131.461,260.368 131.559 M279.678 134.668 C 279.666 138.699,278.270 141.565,276.271 141.665 C 275.574 141.700,274.905 141.568,274.784 141.372 C 274.662 141.176,274.300 141.016,273.977 141.016 C 273.655 141.016,273.500 141.191,273.633 141.406 C 273.766 141.621,273.591 141.797,273.246 141.797 C 272.778 141.797,272.709 141.961,272.976 142.438 C 273.486 143.349,272.411 144.469,270.724 144.785 C 269.421 145.030,269.497 145.076,272.274 145.736 C 277.215 146.910,284.179 150.673,283.883 152.009 C 283.831 152.243,284.069 152.483,284.412 152.541 C 285.082 152.655,287.087 154.603,289.148 157.143 C 291.334 159.837,291.711 160.112,292.347 159.476 C 292.507 159.316,293.364 159.008,294.253 158.792 C 295.487 158.491,295.927 158.168,296.117 157.422 L 296.365 156.445 296.567 157.422 C 296.678 157.959,296.793 156.634,296.822 154.477 C 296.892 149.321,295.971 145.923,293.175 141.016 C 292.362 139.589,288.230 135.533,287.836 135.776 C 287.651 135.890,287.500 135.804,287.500 135.584 C 287.500 134.879,284.625 133.203,283.405 133.197 C 282.354 133.192,280.482 132.451,281.445 132.422 C 281.998 132.405,280.768 131.654,280.176 131.647 C 279.827 131.642,279.685 132.508,279.678 134.668 M164.941 133.082 C 165.317 133.180,165.933 133.180,166.309 133.082 C 166.685 132.984,166.377 132.903,165.625 132.903 C 164.873 132.903,164.565 132.984,164.941 133.082 M267.969 137.500 C 267.969 138.145,268.145 138.672,268.359 138.672 C 268.574 138.672,268.750 138.145,268.750 137.500 C 268.750 136.855,268.574 136.328,268.359 136.328 C 268.145 136.328,267.969 136.855,267.969 137.500 M207.227 147.544 C 206.030 147.832,205.663 148.367,206.812 148.147 C 207.369 148.041,207.920 147.799,208.037 147.610 C 208.154 147.420,208.195 147.286,208.129 147.311 C 208.062 147.336,207.656 147.441,207.227 147.544 M109.511 154.688 C 109.511 156.514,109.579 157.261,109.661 156.348 C 109.743 155.435,109.743 153.940,109.661 153.027 C 109.579 152.114,109.511 152.861,109.511 154.688 M219.531 156.118 C 218.350 156.613,216.727 157.131,215.925 157.269 C 215.123 157.407,214.535 157.629,214.619 157.764 C 214.702 157.898,213.688 158.028,212.365 158.053 C 211.043 158.077,209.478 158.143,208.887 158.199 L 207.813 158.301 207.813 169.496 L 207.813 180.691 208.985 181.384 C 209.630 181.765,210.360 181.951,210.608 181.798 C 210.874 181.634,210.952 181.691,210.800 181.938 C 210.500 182.424,212.885 184.003,214.165 184.165 C 214.646 184.227,215.215 184.319,215.430 184.372 C 216.867 184.723,217.554 184.362,217.203 183.439 C 216.799 182.376,217.003 182.031,218.034 182.031 C 218.428 182.031,218.750 181.855,218.750 181.641 C 218.750 181.426,219.014 181.250,219.336 181.250 C 219.711 181.250,219.928 180.863,219.938 180.176 L 219.953 179.102 220.597 180.273 L 221.241 181.445 221.544 180.078 C 221.710 179.326,221.957 177.217,222.093 175.391 C 222.505 169.851,222.656 171.305,222.656 180.817 C 222.656 186.832,222.789 189.808,223.051 189.646 C 223.268 189.512,223.985 189.941,224.644 190.599 C 225.302 191.258,226.085 191.797,226.383 191.797 C 226.682 191.797,227.103 192.128,227.319 192.532 C 227.536 192.937,228.015 193.384,228.385 193.526 C 228.987 193.756,228.998 193.708,228.494 193.062 C 228.184 192.665,228.436 192.877,229.055 193.533 C 229.675 194.190,230.055 194.463,229.900 194.141 C 229.746 193.818,230.002 193.994,230.469 194.531 C 230.936 195.068,231.193 195.271,231.041 194.981 C 230.817 194.553,230.925 194.539,231.616 194.908 C 232.083 195.159,232.559 195.605,232.672 195.899 C 232.785 196.194,233.113 196.345,233.401 196.234 C 233.689 196.124,234.128 196.413,234.377 196.878 C 234.625 197.343,234.929 197.623,235.052 197.500 C 235.174 197.378,235.524 197.583,235.830 197.955 C 236.201 198.407,236.302 198.438,236.133 198.047 C 235.994 197.725,236.156 197.802,236.494 198.219 C 236.833 198.636,237.115 198.812,237.121 198.610 C 237.128 198.408,237.314 198.554,237.536 198.934 C 237.757 199.314,238.128 199.509,238.359 199.366 C 238.590 199.223,239.122 199.527,239.541 200.041 C 239.959 200.556,240.178 200.739,240.026 200.449 C 239.802 200.021,239.910 200.008,240.600 200.377 C 241.068 200.628,241.547 201.084,241.665 201.390 C 241.782 201.697,242.018 201.863,242.187 201.758 C 242.357 201.653,242.607 201.855,242.742 202.207 C 242.877 202.558,243.086 202.748,243.206 202.627 C 243.327 202.507,243.768 202.701,244.186 203.059 C 244.605 203.418,245.054 203.652,245.184 203.580 C 245.314 203.508,245.528 203.612,245.659 203.812 C 245.939 204.236,253.906 209.430,253.906 209.188 C 253.906 209.098,254.565 209.630,255.371 210.370 C 256.177 211.110,256.973 211.716,257.141 211.717 C 258.061 211.723,262.932 218.242,264.584 221.680 C 268.455 229.736,268.478 240.880,264.638 248.458 C 264.101 249.518,263.629 250.518,263.589 250.681 C 263.550 250.844,263.157 251.298,262.716 251.690 C 262.275 252.082,262.178 252.287,262.500 252.145 C 262.822 252.003,262.471 252.417,261.719 253.064 C 260.967 253.711,260.352 254.605,260.352 255.050 C 260.352 255.958,259.994 256.233,259.505 255.699 C 259.312 255.489,259.404 255.473,259.728 255.662 C 260.123 255.891,260.188 255.836,259.959 255.465 C 259.720 255.078,259.363 255.262,258.520 256.205 C 257.904 256.895,257.490 257.607,257.602 257.787 C 257.713 257.967,257.508 258.354,257.147 258.647 C 256.768 258.955,256.607 258.985,256.767 258.718 C 256.919 258.465,256.884 258.158,256.688 258.037 C 256.492 257.916,256.227 258.091,256.098 258.425 C 255.970 258.760,255.687 258.924,255.469 258.789 C 255.251 258.654,254.968 258.818,254.839 259.153 C 254.711 259.487,254.404 259.641,254.158 259.493 C 253.912 259.346,253.952 259.522,254.247 259.886 C 254.912 260.706,255.245 260.714,256.031 259.929 C 256.438 259.522,257.379 259.304,258.783 259.292 C 260.422 259.277,260.965 259.121,261.124 258.620 C 261.238 258.262,261.946 257.746,262.697 257.474 C 263.448 257.203,264.063 256.816,264.063 256.615 C 264.063 256.414,265.117 256.250,266.406 256.250 C 267.695 256.250,268.750 256.080,268.750 255.872 C 268.750 255.664,268.486 255.594,268.164 255.718 C 267.842 255.842,267.578 255.743,267.578 255.498 C 267.578 255.254,267.842 254.952,268.164 254.829 C 268.486 254.705,268.750 254.378,268.750 254.102 C 268.750 253.500,269.614 253.125,270.997 253.125 C 271.554 253.125,272.338 252.827,272.741 252.463 C 273.143 252.098,274.036 251.739,274.725 251.665 C 275.413 251.590,276.416 251.480,276.953 251.419 C 277.490 251.359,278.040 251.473,278.174 251.674 C 278.534 252.210,279.823 248.582,279.473 248.017 C 279.269 247.686,279.338 247.635,279.694 247.855 C 280.069 248.087,280.143 247.997,279.961 247.525 C 279.824 247.168,279.846 246.875,280.010 246.875 C 280.877 246.875,282.219 236.349,281.823 232.655 C 281.659 231.130,281.477 229.443,281.418 228.906 C 280.144 217.259,273.775 207.613,262.109 199.661 C 261.357 199.148,260.654 198.612,260.547 198.468 C 260.139 197.922,253.005 193.620,252.508 193.620 C 252.222 193.620,252.078 193.473,252.189 193.294 C 252.366 193.008,251.734 192.812,251.456 193.066 C 251.397 193.120,250.931 192.775,250.420 192.299 C 249.909 191.823,249.342 191.525,249.160 191.638 C 248.977 191.751,248.828 191.646,248.828 191.406 C 248.828 191.166,248.671 191.067,248.478 191.186 C 248.286 191.305,248.024 191.128,247.895 190.793 C 247.767 190.459,247.500 190.285,247.302 190.407 C 247.104 190.530,246.883 190.476,246.811 190.287 C 246.656 189.883,242.489 187.185,241.771 187.025 C 241.499 186.964,240.947 186.600,240.546 186.216 C 240.144 185.832,239.646 185.623,239.439 185.751 C 239.232 185.879,239.063 185.834,239.063 185.650 C 239.063 185.467,237.551 184.533,235.703 183.576 C 225.790 178.442,223.241 174.370,222.815 162.991 C 222.510 154.827,222.527 154.862,219.531 156.118 M274.219 158.574 C 274.219 160.299,268.942 165.625,267.233 165.625 C 266.589 165.625,265.951 165.804,265.816 166.022 C 265.681 166.240,265.363 166.298,265.110 166.150 C 264.856 166.002,264.956 166.233,265.333 166.664 C 265.709 167.094,265.921 167.542,265.804 167.660 C 265.288 168.175,269.452 170.025,272.747 170.744 C 274.728 171.176,276.462 171.712,276.600 171.935 C 277.064 172.686,277.841 167.176,277.582 164.974 C 277.215 161.851,274.219 156.150,274.219 158.574 M152.461 165.862 C 152.555 166.315,152.488 166.943,152.312 167.257 C 152.103 167.632,152.245 168.045,152.725 168.456 C 153.532 169.147,153.477 166.947,152.654 165.625 C 152.373 165.173,152.329 165.227,152.461 165.862 M263.952 166.428 C 264.644 167.146,265.295 167.648,265.399 167.544 C 265.503 167.439,264.938 166.852,264.142 166.239 L 262.695 165.124 263.952 166.428 M247.559 184.666 C 249.761 184.736,253.364 184.736,255.566 184.666 C 257.769 184.597,255.967 184.540,251.563 184.540 C 247.158 184.540,245.356 184.597,247.559 184.666 M98.270 186.551 C 97.430 187.391,97.488 189.570,98.371 190.369 C 99.996 191.840,102.734 190.568,102.734 188.342 C 102.734 186.254,99.760 185.061,98.270 186.551 M110.156 194.837 C 110.156 194.968,110.616 195.739,111.178 196.550 C 112.426 198.351,112.229 199.749,110.645 200.327 C 110.054 200.543,109.839 200.733,110.167 200.750 C 110.495 200.767,111.198 200.478,111.729 200.108 L 112.695 199.435 111.955 200.596 L 111.215 201.758 112.248 200.811 C 113.280 199.865,113.789 196.875,112.918 196.875 C 112.718 196.875,112.498 196.491,112.430 196.022 C 112.319 195.267,110.156 194.139,110.156 194.837 M106.797 195.221 C 105.347 196.189,105.013 199.466,106.250 200.586 C 106.680 200.975,107.031 201.094,107.031 200.852 C 107.031 200.568,107.486 200.490,108.301 200.632 L 109.570 200.854 108.203 200.134 C 106.422 199.196,106.166 197.695,107.596 196.571 C 109.114 195.377,108.392 194.156,106.797 195.221 M195.219 214.985 C 194.576 215.776,194.552 215.779,194.768 215.039 C 194.930 214.484,194.889 214.406,194.627 214.771 C 194.424 215.054,194.324 215.669,194.404 216.139 C 194.714 217.955,193.973 218.214,191.822 217.043 C 190.352 216.244,189.798 216.097,189.681 216.478 C 189.242 217.903,189.171 218.750,189.490 218.750 C 189.684 218.750,189.844 218.926,189.844 219.141 C 189.844 219.355,189.471 219.531,189.015 219.531 C 188.322 219.531,188.266 219.628,188.672 220.117 C 189.347 220.931,188.716 220.846,187.198 219.920 C 185.555 218.919,185.417 218.937,185.644 220.127 C 185.748 220.669,185.711 221.188,185.562 221.280 C 185.413 221.372,185.405 222.329,185.543 223.407 C 185.753 225.043,185.706 225.294,185.258 224.922 C 184.845 224.580,184.749 224.601,184.841 225.016 C 184.907 225.312,186.264 226.308,187.856 227.228 C 189.448 228.149,191.976 229.796,193.475 230.890 C 194.974 231.983,196.439 232.970,196.733 233.082 C 197.400 233.338,197.535 216.619,196.869 216.207 C 196.650 216.072,196.590 215.771,196.734 215.538 C 196.884 215.295,196.815 215.225,196.573 215.375 C 196.335 215.522,196.094 215.310,196.024 214.893 C 195.905 214.187,195.865 214.192,195.219 214.985 M165.653 223.757 C 163.842 224.134,162.287 224.664,162.197 224.933 C 162.067 225.323,161.906 225.320,161.410 224.919 C 161.068 224.641,160.891 224.590,161.017 224.805 C 161.143 225.020,161.001 225.422,160.701 225.699 C 160.401 225.976,160.156 226.074,160.156 225.917 C 160.156 225.760,159.880 225.973,159.541 226.390 C 159.203 226.807,159.043 226.885,159.185 226.563 C 159.327 226.240,159.061 226.416,158.594 226.953 C 158.127 227.490,157.880 227.675,158.044 227.365 C 158.218 227.037,157.819 227.173,157.097 227.687 C 156.375 228.202,155.961 228.768,156.113 229.034 C 156.257 229.286,156.236 229.367,156.066 229.213 C 155.609 228.800,154.230 229.655,154.542 230.158 C 154.692 230.401,154.631 230.480,154.402 230.339 C 153.885 230.019,151.202 232.920,149.374 235.779 C 145.971 241.098,144.416 246.703,144.605 252.971 C 144.680 255.498,144.579 257.035,144.336 257.038 C 144.121 257.041,144.209 257.214,144.531 257.422 C 144.854 257.630,144.998 257.803,144.852 257.807 C 143.449 257.838,148.539 270.008,150.977 272.448 C 151.836 273.308,152.188 273.759,151.758 273.450 C 151.328 273.141,151.663 273.618,152.501 274.510 C 153.340 275.402,154.211 276.097,154.437 276.054 C 154.662 276.012,154.863 276.240,154.883 276.563 C 154.902 276.885,155.143 277.100,155.418 277.041 C 155.693 276.982,155.818 277.094,155.697 277.290 C 155.347 277.856,156.419 278.513,157.388 278.327 C 158.101 278.189,158.187 278.260,157.828 278.692 C 157.495 279.094,157.501 279.300,157.854 279.518 C 158.135 279.692,158.222 279.644,158.070 279.398 C 157.931 279.173,158.068 278.892,158.374 278.774 C 158.761 278.626,158.887 278.790,158.786 279.311 C 158.707 279.724,158.834 280.180,159.069 280.326 C 159.325 280.484,159.384 280.409,159.217 280.138 C 159.054 279.874,159.181 279.688,159.524 279.688 C 159.846 279.688,160.219 279.863,160.352 280.078 C 160.484 280.293,160.802 280.466,161.058 280.463 C 161.371 280.459,161.350 280.347,160.995 280.122 C 160.581 279.860,160.666 279.642,161.386 279.115 L 162.305 278.443 161.328 278.660 C 160.432 278.859,160.441 278.839,161.426 278.426 C 162.684 277.897,162.834 277.344,161.719 277.344 C 161.282 277.344,160.938 277.083,160.938 276.754 C 160.938 276.430,161.289 275.863,161.719 275.495 C 162.148 275.127,162.500 274.504,162.500 274.109 C 162.500 273.714,162.632 273.469,162.793 273.564 C 163.824 274.171,166.395 271.628,165.767 270.623 C 165.295 269.867,165.254 269.141,165.683 269.141 C 165.891 269.141,165.951 268.962,165.816 268.744 C 165.681 268.525,165.409 268.447,165.210 268.569 C 165.012 268.692,164.541 268.594,164.163 268.351 C 163.521 267.938,163.523 267.924,164.195 268.136 C 165.549 268.562,165.610 267.932,164.348 266.562 C 152.779 254.006,160.323 236.322,177.838 234.942 C 181.250 234.673,182.119 234.306,181.294 233.482 C 181.055 233.242,180.854 232.511,180.847 231.855 C 180.840 231.200,180.494 229.697,180.078 228.516 C 179.662 227.334,179.317 226.060,179.310 225.684 C 179.303 225.308,178.989 224.972,178.613 224.939 C 178.237 224.905,178.809 224.768,179.883 224.634 L 181.836 224.390 180.273 223.890 C 177.620 223.042,169.440 222.967,165.653 223.757 M185.034 247.518 C 184.478 248.074,184.740 289.640,185.318 292.637 C 186.129 296.845,188.541 301.931,189.456 301.365 C 189.640 301.252,189.900 301.338,190.035 301.556 C 190.352 302.068,191.782 302.073,191.846 301.563 C 191.873 301.348,191.938 300.996,191.992 300.781 C 192.046 300.566,192.112 300.155,192.139 299.867 C 192.166 299.580,193.152 298.305,194.330 297.035 C 195.508 295.766,196.475 294.584,196.479 294.411 C 196.482 294.237,196.655 294.200,196.864 294.329 C 197.072 294.458,197.355 294.117,197.492 293.571 C 197.629 293.025,197.898 292.578,198.089 292.578 C 198.281 292.578,198.438 292.304,198.438 291.969 C 198.438 291.634,198.611 291.468,198.824 291.599 C 199.270 291.874,198.937 290.826,198.206 289.648 C 197.057 287.800,196.905 285.274,196.819 266.504 L 196.730 247.266 191.008 247.266 C 187.861 247.266,185.173 247.379,185.034 247.518 M253.361 260.373 C 253.574 260.973,253.527 261.037,253.135 260.675 C 252.598 260.179,251.563 260.397,251.563 261.006 C 251.563 261.212,251.936 261.262,252.393 261.117 C 252.923 260.949,253.132 261.000,252.972 261.259 C 252.834 261.482,252.905 261.778,253.128 261.916 C 253.352 262.054,253.487 261.935,253.428 261.650 C 253.357 261.312,253.650 261.170,254.273 261.239 C 254.797 261.297,255.148 261.295,255.054 261.235 C 254.960 261.174,254.480 260.785,253.987 260.369 C 253.101 259.622,253.094 259.623,253.361 260.373 M248.535 261.862 C 245.805 262.761,245.411 263.281,247.461 263.281 C 248.213 263.281,248.828 263.125,248.828 262.933 C 248.828 262.528,250.713 261.936,251.541 262.080 C 252.014 262.163,252.022 262.077,251.591 261.558 C 251.308 261.217,251.054 260.965,251.026 260.998 C 250.999 261.032,249.878 261.420,248.535 261.862 " stroke="none" fill="#41cbdc" fill-rule="evenodd"></path><path id="path4" d="M160.938 107.812 C 160.615 108.020,159.755 108.081,159.026 107.947 C 158.113 107.780,157.782 107.838,157.964 108.132 C 158.140 108.417,157.830 108.509,157.038 108.409 C 156.252 108.310,155.936 108.402,156.109 108.682 C 156.289 108.973,155.953 109.026,155.041 108.851 C 154.032 108.657,153.853 108.697,154.297 109.018 C 154.743 109.340,154.557 109.387,153.516 109.213 C 152.681 109.074,152.353 109.117,152.674 109.324 C 153.305 109.730,151.386 110.335,150.737 109.934 C 150.518 109.798,150.112 109.997,149.835 110.376 C 149.523 110.803,149.080 110.968,148.669 110.810 C 148.305 110.670,148.102 110.711,148.220 110.901 C 148.477 111.318,147.342 111.812,146.840 111.502 C 146.644 111.381,146.484 111.448,146.484 111.651 C 146.484 111.854,146.001 112.334,145.410 112.719 C 144.372 113.395,144.355 113.394,144.922 112.703 C 145.487 112.015,145.462 112.013,144.238 112.645 C 143.540 113.006,142.969 113.395,142.969 113.510 C 142.969 113.624,143.145 113.609,143.359 113.477 C 143.574 113.344,143.750 113.329,143.750 113.443 C 143.750 113.840,141.504 114.812,141.228 114.535 C 141.075 114.383,141.006 114.434,141.074 114.648 C 141.215 115.093,139.220 117.188,138.655 117.188 C 138.037 117.188,135.147 119.981,135.378 120.355 C 135.496 120.546,135.350 120.703,135.052 120.703 C 134.755 120.703,134.098 121.143,133.594 121.680 C 133.089 122.217,132.883 122.656,133.135 122.656 C 133.387 122.656,133.594 122.842,133.594 123.070 C 133.594 123.297,133.418 123.375,133.203 123.242 C 132.988 123.109,132.813 123.197,132.813 123.438 C 132.813 123.678,132.610 123.749,132.362 123.596 C 132.082 123.423,132.017 123.488,132.190 123.769 C 132.520 124.303,133.984 123.669,133.984 122.991 C 133.984 122.761,134.264 122.680,134.606 122.811 C 135.416 123.122,135.957 122.771,135.700 122.101 C 135.577 121.781,135.172 121.656,134.679 121.784 C 134.158 121.921,133.955 121.847,134.120 121.581 C 134.325 121.250,135.742 121.183,135.742 121.504 C 135.742 121.548,136.108 121.624,136.556 121.673 C 137.012 121.723,137.370 121.537,137.370 121.250 C 137.370 120.968,137.242 120.817,137.085 120.913 C 136.929 121.010,136.702 120.832,136.581 120.518 C 136.461 120.204,136.533 119.841,136.742 119.712 C 136.951 119.583,137.004 119.286,136.860 119.053 C 136.707 118.806,136.779 118.741,137.032 118.897 C 137.271 119.045,137.372 119.468,137.258 119.837 C 137.088 120.387,137.134 120.376,137.516 119.778 C 137.878 119.210,137.875 118.982,137.504 118.752 C 137.135 118.525,137.133 118.391,137.492 118.169 C 137.749 118.010,138.141 118.062,138.363 118.285 C 138.833 118.755,139.943 118.445,139.626 117.932 C 139.509 117.742,139.684 117.691,140.017 117.819 C 140.349 117.946,140.523 118.208,140.404 118.400 C 140.286 118.593,140.625 118.750,141.160 118.750 C 143.617 118.750,153.034 123.027,152.496 123.898 C 152.165 124.433,153.172 124.257,156.445 123.205 C 171.133 118.489,184.014 126.131,184.774 140.014 C 184.916 142.606,185.060 144.505,185.094 144.235 C 185.140 143.872,185.798 143.800,187.598 143.959 C 188.940 144.078,191.533 144.212,193.359 144.256 L 196.680 144.336 196.913 142.188 C 197.370 137.984,196.820 122.606,196.230 123.096 C 195.940 123.336,195.699 123.380,195.694 123.192 C 195.690 123.005,195.382 123.234,195.011 123.701 C 193.568 125.518,193.787 125.700,186.495 116.627 C 183.328 112.687,172.138 106.850,170.445 108.255 C 169.976 108.644,169.771 108.471,169.861 107.760 C 169.878 107.623,169.204 107.666,168.364 107.855 C 167.420 108.067,166.445 108.050,165.814 107.810 C 164.517 107.317,161.703 107.318,160.938 107.812 M263.867 110.777 C 259.980 112.813,260.097 118.830,264.056 120.446 C 268.027 122.067,272.590 117.375,270.890 113.418 C 269.716 110.684,266.415 109.443,263.867 110.777 M268.013 112.676 C 269.746 113.383,270.067 117.100,268.502 118.331 C 264.810 121.235,260.452 116.282,263.866 113.061 C 265.264 111.743,265.643 111.708,268.013 112.676 M130.664 125.000 C 130.531 125.215,130.513 125.391,130.623 125.391 C 130.734 125.391,130.374 125.841,129.824 126.391 C 129.273 126.941,128.954 127.512,129.114 127.660 C 129.273 127.809,129.485 127.703,129.584 127.425 C 129.722 127.038,129.891 127.026,130.311 127.375 C 130.956 127.910,130.937 127.946,131.021 126.074 C 131.091 124.516,131.046 124.382,130.664 125.000 M264.844 133.216 C 264.348 133.547,264.425 133.756,265.339 134.565 C 265.934 135.091,266.532 136.099,266.669 136.804 C 266.883 137.911,267.496 139.305,269.677 143.649 C 269.958 144.208,270.475 144.526,271.105 144.528 C 272.379 144.532,273.468 143.316,272.976 142.438 C 272.709 141.961,272.778 141.797,273.246 141.797 C 273.591 141.797,273.766 141.621,273.633 141.406 C 273.294 140.858,274.355 140.917,274.915 141.478 C 275.481 142.044,275.642 141.901,275.987 140.527 C 276.292 139.313,275.283 138.934,274.837 140.095 C 274.541 140.867,274.116 140.527,273.940 139.376 C 273.779 138.320,273.112 137.500,272.413 137.500 C 272.117 137.500,271.871 137.368,271.866 137.207 C 271.848 136.646,268.676 134.570,267.837 134.570 C 267.336 134.570,266.835 134.213,266.607 133.691 C 266.186 132.733,265.745 132.614,264.844 133.216 M268.750 137.500 C 268.750 138.145,268.574 138.672,268.359 138.672 C 268.145 138.672,267.969 138.145,267.969 137.500 C 267.969 136.855,268.145 136.328,268.359 136.328 C 268.574 136.328,268.750 136.855,268.750 137.500 M124.051 138.114 C 123.908 138.686,123.865 139.230,123.958 139.322 C 124.050 139.414,124.242 139.021,124.386 138.449 C 124.530 137.876,124.572 137.332,124.480 137.240 C 124.388 137.148,124.195 137.541,124.051 138.114 M236.274 140.225 L 235.352 140.997 236.423 140.518 C 237.012 140.255,237.495 139.907,237.497 139.746 C 237.502 139.298,237.276 139.386,236.274 140.225 M231.934 144.172 C 231.558 144.391,231.250 144.835,231.250 145.160 C 231.250 145.884,231.885 145.535,232.434 144.509 C 232.897 143.644,232.870 143.626,231.934 144.172 M121.966 148.828 C 121.966 149.580,122.046 149.888,122.144 149.512 C 122.243 149.136,122.243 148.521,122.144 148.145 C 122.046 147.769,121.966 148.076,121.966 148.828 M229.016 148.855 C 228.777 149.488,228.741 149.907,228.937 149.786 C 229.526 149.422,230.103 148.108,229.765 147.899 C 229.592 147.792,229.254 148.222,229.016 148.855 M227.148 151.093 C 225.896 152.176,225.153 153.197,225.824 152.912 C 226.302 152.709,228.384 150.370,228.057 150.404 C 227.987 150.411,227.578 150.721,227.148 151.093 M121.773 158.551 C 121.667 158.956,121.732 159.528,121.917 159.820 C 122.146 160.181,122.256 159.945,122.260 159.082 C 122.266 157.661,122.064 157.439,121.773 158.551 M162.814 161.621 C 162.629 162.296,162.287 162.500,161.342 162.500 C 160.620 162.500,160.210 162.662,160.352 162.891 C 160.484 163.105,160.241 163.281,159.812 163.281 C 159.382 163.281,158.929 163.445,158.806 163.645 C 158.682 163.844,157.573 164.129,156.341 164.277 C 152.757 164.708,152.063 166.761,154.142 170.782 C 154.451 171.379,154.695 171.960,154.684 172.075 C 154.450 174.565,159.867 178.397,185.352 193.768 C 190.938 197.138,198.760 201.881,202.734 204.310 C 222.307 216.271,226.086 218.458,226.615 218.132 C 226.895 217.959,226.970 218.016,226.807 218.279 C 226.549 218.697,228.019 219.783,228.613 219.614 C 228.774 219.569,228.906 219.742,228.906 220.000 C 228.906 220.365,229.010 220.365,229.375 220.000 C 230.007 219.368,230.673 219.400,230.145 220.037 C 229.821 220.427,230.237 220.851,231.952 221.884 C 234.104 223.180,236.328 223.736,236.328 222.978 C 236.328 222.776,236.548 222.742,236.816 222.903 C 237.152 223.105,237.138 222.992,236.772 222.540 C 236.208 221.844,235.351 222.023,235.796 222.744 C 235.940 222.977,235.879 223.057,235.660 222.921 C 235.274 222.683,235.288 220.832,235.679 220.440 C 235.786 220.334,236.632 220.145,237.559 220.021 C 238.487 219.896,239.468 219.572,239.740 219.300 C 240.358 218.682,240.387 218.219,239.783 218.592 C 239.493 218.772,239.439 218.698,239.632 218.386 C 239.848 218.036,240.051 218.020,240.357 218.325 C 240.969 218.938,242.188 218.848,242.188 218.190 C 242.188 217.883,242.539 217.519,242.969 217.383 C 243.398 217.246,243.750 216.949,243.750 216.723 C 243.750 216.450,243.931 216.461,244.286 216.756 C 244.820 217.199,246.094 216.970,246.094 216.431 C 246.094 215.875,242.571 213.630,242.128 213.904 C 241.857 214.071,241.782 214.013,241.940 213.757 C 242.196 213.343,233.341 207.678,214.648 196.298 C 190.290 181.468,185.164 178.112,185.111 176.957 C 185.080 176.294,185.008 176.198,184.887 176.660 C 184.611 177.718,184.226 177.560,178.851 174.184 C 171.984 169.871,169.045 167.666,169.382 167.079 C 169.533 166.816,169.511 166.734,169.333 166.895 C 169.154 167.057,168.657 166.881,168.226 166.505 C 167.690 166.035,167.551 166.002,167.786 166.400 C 167.974 166.719,167.054 165.927,165.743 164.642 C 164.431 163.356,163.289 161.953,163.206 161.523 C 163.064 160.792,163.039 160.798,162.814 161.621 M122.734 164.648 C 122.734 165.078,122.875 165.869,123.047 166.406 C 123.295 167.180,123.360 167.220,123.360 166.602 C 123.360 166.172,123.219 165.381,123.047 164.844 C 122.799 164.070,122.734 164.030,122.734 164.648 M123.883 169.141 C 123.883 169.463,124.034 170.078,124.219 170.508 C 124.430 171.000,124.554 171.072,124.554 170.703 C 124.554 170.381,124.403 169.766,124.219 169.336 C 124.007 168.844,123.883 168.771,123.883 169.141 M185.693 170.589 C 185.811 171.404,185.915 172.350,185.923 172.691 C 185.931 173.033,186.377 173.512,186.914 173.757 C 187.457 174.004,187.891 174.532,187.891 174.944 C 187.891 175.392,188.782 176.356,190.137 177.373 C 191.372 178.300,192.850 179.481,193.421 179.997 C 193.991 180.513,194.606 180.936,194.788 180.937 C 194.969 180.937,195.066 181.117,195.004 181.337 C 194.941 181.557,195.170 181.629,195.512 181.498 C 195.912 181.344,196.038 181.415,195.864 181.696 C 195.702 181.959,195.811 182.061,196.137 181.952 C 196.556 181.813,196.705 180.594,196.789 176.598 C 196.862 173.123,196.766 171.506,196.496 171.673 C 196.275 171.809,196.094 171.653,196.094 171.326 C 196.094 170.998,195.742 170.542,195.313 170.313 C 194.517 169.887,194.158 170.426,194.922 170.898 C 195.137 171.031,195.313 171.316,195.313 171.530 C 195.313 171.745,195.118 171.801,194.880 171.654 C 194.590 171.475,194.533 171.655,194.706 172.201 C 194.936 172.924,194.711 172.863,192.705 171.655 C 190.629 170.405,189.743 170.072,186.587 169.359 C 185.496 169.112,185.482 169.131,185.693 170.589 M107.450 179.849 C 106.081 181.498,107.076 183.765,109.006 183.395 C 110.862 183.040,111.442 181.364,110.156 180.078 C 109.243 179.165,108.098 179.068,107.450 179.849 M295.461 205.284 C 294.542 206.204,294.109 208.510,294.953 207.989 C 295.185 207.845,295.635 208.099,295.953 208.553 C 296.450 209.262,296.650 209.311,297.386 208.902 C 297.857 208.640,298.418 208.412,298.633 208.395 C 298.848 208.377,298.982 208.158,298.930 207.906 C 298.877 207.642,299.091 207.547,299.441 207.682 C 299.801 207.820,299.949 208.164,299.806 208.535 C 299.675 208.876,299.709 209.015,299.882 208.842 C 300.316 208.408,300.278 206.273,299.841 206.544 C 299.646 206.664,299.585 206.384,299.706 205.921 C 300.139 204.269,296.954 203.791,295.461 205.284 M128.125 214.146 C 128.125 214.365,127.691 214.461,127.160 214.360 C 126.630 214.258,126.292 214.332,126.410 214.523 C 126.528 214.714,126.172 214.788,125.617 214.688 C 125.062 214.587,124.609 214.688,124.609 214.911 C 124.609 215.135,124.346 215.217,124.023 215.093 C 123.701 214.969,123.438 215.039,123.438 215.247 C 123.438 215.455,123.100 215.625,122.688 215.625 C 121.583 215.625,120.677 216.047,120.924 216.447 C 121.043 216.640,120.998 216.810,120.824 216.827 C 119.549 216.947,118.887 217.260,118.247 218.043 C 117.842 218.539,117.629 218.682,117.773 218.359 C 117.918 218.037,117.674 218.213,117.230 218.750 C 116.787 219.287,116.420 219.877,116.415 220.061 C 116.410 220.245,116.159 220.301,115.857 220.185 C 115.555 220.069,114.984 220.358,114.587 220.827 C 113.877 221.668,113.878 221.672,114.667 221.094 C 115.107 220.771,114.688 221.233,113.735 222.119 C 112.782 223.005,112.121 223.922,112.267 224.157 C 112.412 224.392,112.189 224.797,111.773 225.057 C 111.338 225.329,111.110 225.777,111.238 226.110 C 111.383 226.487,111.300 226.591,111.004 226.408 C 110.727 226.237,110.547 226.375,110.547 226.758 C 110.547 227.136,110.366 227.278,110.096 227.111 C 109.848 226.958,109.741 226.991,109.858 227.186 C 109.975 227.380,109.749 228.770,109.355 230.273 C 107.645 236.801,109.785 248.808,112.980 250.615 C 113.378 250.840,113.380 250.791,112.988 250.370 C 112.257 249.582,112.361 249.411,114.058 248.598 C 114.915 248.187,115.618 247.632,115.621 247.363 C 115.623 247.055,116.200 246.875,117.188 246.875 C 118.330 246.875,118.750 246.714,118.750 246.277 C 118.750 245.948,119.058 245.565,119.434 245.427 C 119.810 245.289,120.712 244.553,121.440 243.793 C 122.641 242.537,122.738 242.498,122.495 243.373 C 122.277 244.160,122.305 244.214,122.648 243.668 C 122.879 243.301,122.968 242.510,122.847 241.910 C 120.816 231.901,127.737 225.122,137.109 227.940 C 138.291 228.295,139.637 228.614,140.099 228.648 C 140.562 228.683,140.860 228.843,140.760 229.004 C 140.498 229.428,140.790 229.368,141.975 228.753 C 142.552 228.453,142.835 228.145,142.603 228.068 C 141.952 227.851,144.165 225.000,144.984 225.000 C 145.380 225.000,145.703 224.824,145.703 224.609 C 145.703 224.395,146.073 224.219,146.526 224.219 C 147.054 224.219,147.277 224.031,147.148 223.695 C 146.894 223.033,147.511 221.990,147.917 222.396 C 148.083 222.562,147.961 222.862,147.645 223.062 C 147.329 223.262,147.255 223.428,147.480 223.432 C 148.469 223.446,148.828 222.523,148.139 221.736 C 147.489 220.994,147.493 220.972,148.242 221.228 C 150.009 221.830,144.514 217.430,141.947 216.186 C 137.852 214.202,128.125 212.766,128.125 214.146 M234.551 222.552 C 234.708 222.962,234.573 222.974,233.878 222.612 C 232.654 221.976,232.618 221.909,233.539 221.978 C 233.988 222.012,234.443 222.270,234.551 222.552 M237.891 229.316 C 237.891 229.971,237.616 231.070,237.281 231.758 L 236.672 233.008 237.468 232.031 C 238.171 231.169,238.652 228.125,238.086 228.125 C 237.979 228.125,237.891 228.661,237.891 229.316 M213.797 253.918 C 212.010 254.802,210.074 256.100,209.403 256.864 L 208.203 258.230 208.203 271.721 C 208.203 283.554,208.273 285.142,208.774 284.641 C 209.088 284.327,209.387 283.436,209.440 282.660 C 209.522 281.437,209.667 281.249,210.529 281.242 C 211.263 281.235,211.677 280.904,212.109 279.977 C 212.524 279.088,213.094 278.611,214.063 278.343 C 214.814 278.134,215.867 277.560,216.402 277.068 C 216.937 276.575,217.596 276.172,217.867 276.172 C 218.505 276.172,218.508 275.125,217.871 274.867 C 217.502 274.717,217.523 274.571,217.959 274.269 C 218.798 273.686,219.834 274.961,220.025 276.811 L 220.181 278.320 220.247 276.660 C 220.283 275.747,220.478 275.000,220.679 275.000 C 220.881 275.000,221.013 274.253,220.972 273.340 C 220.908 271.888,220.997 271.691,221.680 271.774 C 225.676 272.254,226.571 272.142,225.978 271.236 C 225.417 270.380,225.445 270.352,227.155 270.096 C 228.204 269.939,228.906 269.628,228.906 269.322 C 228.906 269.041,229.565 268.597,230.371 268.335 C 231.820 267.865,233.950 266.582,234.426 265.891 C 234.562 265.695,235.395 265.603,236.278 265.687 C 237.161 265.771,237.931 265.698,237.989 265.525 C 238.047 265.351,239.411 265.149,241.020 265.075 C 244.643 264.909,248.391 263.281,245.149 263.281 C 244.630 263.281,243.883 263.177,243.489 263.049 C 242.886 262.853,242.866 262.886,243.359 263.259 C 243.818 263.605,243.649 263.652,242.578 263.478 C 241.826 263.355,240.156 263.191,238.867 263.113 C 233.052 262.763,228.808 260.777,223.242 255.799 C 218.710 251.746,218.340 251.672,213.797 253.918 " stroke="none" fill="#efa748" fill-rule="evenodd"></path></g></svg>